<?xml version="1.0" standalone="no"?>
<!DOCTYPE svg PUBLIC "-//W3C//DTD SVG 20010904//EN"
 "http://www.w3.org/TR/2001/REC-SVG-20010904/DTD/svg10.dtd">
<svg version="1.0" xmlns="http://www.w3.org/2000/svg"
 width="500.000000pt" height="500.000000pt" viewBox="0 0 500.000000 500.000000"
 preserveAspectRatio="xMidYMid meet">
<metadata>
Created by potrace 1.14, written by Peter Selinger 2001-2017
</metadata>
<g transform="translate(0.000000,500.000000) scale(0.100000,-0.100000)"
fill="#000000" stroke="none">
<path d="M2445 4429 c-22 -10 -50 -19 -62 -19 -28 0 -29 -8 -5 -27 12 -10 8
-10 -15 2 -43 21 -70 7 -144 -73 -53 -58 -124 -102 -184 -116 -16 -4 -58 -21
-92 -38 -62 -31 -63 -31 -106 -14 -64 24 -69 19 -10 -8 l52 -25 46 24 c25 14
45 21 45 16 0 -5 -14 -15 -31 -24 -33 -16 -30 -23 12 -28 21 -3 33 5 60 40 19
25 41 46 49 48 8 3 4 -5 -10 -16 -38 -30 -17 -35 26 -6 24 16 49 25 67 23 16
-2 32 3 37 12 7 11 10 12 10 2 0 -9 11 -4 31 12 17 14 37 26 45 26 8 0 14 5
14 10 0 13 -16 13 -40 0 -15 -8 -17 -7 -12 12 3 14 1 19 -6 14 -7 -4 -12 -14
-12 -22 0 -8 -7 -14 -15 -14 -7 0 -18 -6 -22 -13 -4 -7 -27 -17 -50 -23 -23
-6 -40 -7 -37 -3 3 5 11 9 17 9 16 0 84 46 137 93 51 45 74 46 131 7 24 -16
51 -30 59 -29 9 0 6 4 -8 12 -12 7 -20 16 -16 19 3 4 -10 14 -30 22 -40 17
-43 21 -20 30 10 4 13 2 8 -6 -4 -7 -3 -8 5 -4 6 4 23 -2 37 -13 15 -12 32
-21 38 -21 6 0 0 9 -14 20 -20 16 -21 19 -5 13 17 -6 16 -3 -5 18 -14 13 -21
21 -16 17 14 -11 28 -10 22 1 -3 5 1 12 10 15 11 4 15 2 11 -8 -3 -8 6 -24 20
-37 l25 -24 -16 39 c-19 45 -14 58 20 52 13 -3 24 0 24 6 0 5 7 8 15 5 8 -4
17 -2 20 3 10 16 -69 8 -110 -11z m-435 -264 c-7 -8 -17 -15 -22 -15 -6 0 -5
7 2 15 7 8 17 15 22 15 6 0 5 -7 -2 -15z"/>
<path d="M2560 4425 c-10 -12 -15 -13 -21 -4 -5 8 -10 5 -18 -10 -10 -17 -8
-25 7 -41 l19 -21 33 31 c17 16 42 30 54 29 18 -1 17 -2 -8 -13 -20 -9 -25
-15 -15 -19 9 -4 7 -6 -5 -4 -14 1 -20 -5 -22 -28 -2 -16 0 -23 3 -15 8 19 24
30 43 29 10 0 11 -2 2 -6 -6 -2 -9 -10 -5 -16 4 -7 0 -8 -13 -4 -18 7 -18 7
-1 -7 18 -14 17 -15 -12 -30 -17 -9 -34 -15 -38 -14 -12 5 -30 -61 -36 -129
-4 -41 -2 -63 5 -63 6 0 8 10 4 24 -3 14 -1 28 6 32 7 4 8 3 4 -4 -4 -7 -4
-17 -1 -23 9 -14 50 47 57 83 3 15 1 25 -3 22 -5 -3 -9 -15 -9 -26 0 -12 -3
-18 -7 -15 -3 4 -15 -1 -25 -10 -34 -31 -9 15 33 60 21 23 35 44 33 47 -3 3
-18 -11 -34 -30 -27 -33 -49 -37 -37 -8 8 22 106 71 125 63 9 -4 30 -9 45 -11
34 -5 67 -21 67 -34 0 -15 30 -40 48 -40 15 1 15 2 -2 15 -17 13 -14 14 35 9
79 -8 108 -22 123 -59 14 -32 46 -44 46 -18 0 11 9 8 33 -8 17 -13 37 -30 43
-38 10 -13 18 -10 57 21 24 21 62 44 83 52 58 23 235 68 264 68 14 0 59 21
100 46 63 40 82 47 123 46 26 0 52 -5 58 -11 9 -9 1 -9 -28 -1 -31 7 -48 6
-78 -6 -21 -9 -36 -19 -32 -22 3 -3 14 -1 25 5 30 16 89 13 117 -5 18 -12 23
-22 20 -45 -8 -57 -52 -135 -124 -216 -92 -105 -162 -150 -301 -192 -34 -10
-34 -10 10 -5 25 4 77 21 115 38 137 63 315 280 315 384 0 18 -10 42 -24 59
-21 25 -30 28 -82 27 -50 -1 -76 -9 -164 -52 -58 -29 -111 -52 -119 -52 -32 0
-183 -42 -237 -66 -93 -41 -124 -41 -173 0 -47 40 -84 53 -161 60 -44 4 -60
11 -80 33 -58 63 -112 102 -139 99 -14 -2 -18 -1 -8 1 26 6 17 23 -21 38 -23
10 -31 11 -29 2 1 -7 -4 -11 -11 -9 -7 1 -21 -12 -31 -29 -15 -24 -20 -27 -25
-14 -9 24 -7 32 4 15 6 -10 10 -11 10 -2 0 6 9 21 20 32 11 11 16 20 11 20 -5
0 -14 -7 -21 -15z m160 -76 c0 -5 -17 -9 -37 -8 -21 0 -32 3 -25 6 6 2 10 8 8
12 -3 4 8 5 25 3 16 -2 29 -8 29 -13z m298 -170 c-3 -8 -7 -3 -11 10 -4 17 -3
21 5 13 5 -5 8 -16 6 -23z m-447 -22 c-10 -9 -11 -8 -5 6 3 10 9 15 12 12 3
-3 0 -11 -7 -18z"/>
<path d="M2485 4390 c9 -16 18 -30 21 -30 2 0 -2 14 -11 30 -9 17 -18 30 -21
30 -2 0 2 -13 11 -30z"/>
<path d="M1165 4326 c-31 -22 -23 -72 24 -156 98 -173 155 -232 256 -266 28
-9 78 -32 111 -50 71 -38 118 -51 227 -59 94 -8 124 -28 132 -90 6 -44 10 -65
20 -110 4 -16 7 -37 7 -45 1 -8 9 -25 20 -37 11 -12 18 -26 15 -30 -3 -5 -1
-36 6 -69 19 -93 17 -97 -81 -152 -204 -115 -316 -180 -462 -267 -295 -175
-445 -263 -495 -288 -27 -14 -122 -69 -210 -123 -88 -53 -188 -113 -223 -133
l-62 -36 1 -238 2 -239 30 -18 c16 -10 74 -42 128 -71 55 -29 98 -57 96 -62
-1 -5 -59 -42 -127 -82 l-125 -73 0 -68 c-1 -38 1 -74 3 -81 2 -6 34 -29 70
-51 37 -21 100 -58 140 -82 l72 -42 63 39 c97 62 177 108 237 138 30 15 97 54
147 87 l92 60 178 -108 c98 -59 221 -131 273 -161 106 -61 90 -62 200 9 36 23
99 60 140 83 90 51 225 130 262 156 17 12 34 16 45 11 10 -4 106 -59 213 -123
249 -148 319 -189 328 -189 4 0 29 15 57 33 76 50 198 124 315 190 58 32 117
66 132 75 34 21 43 16 240 -106 79 -49 189 -112 245 -141 l102 -53 61 38 c34
21 64 42 67 47 3 5 5 77 4 158 -1 82 0 149 4 149 3 0 66 -34 140 -75 l135 -76
49 25 c84 43 77 -2 80 530 l2 475 -43 22 c-24 12 -68 36 -98 54 -150 90 -515
304 -590 346 -47 26 -137 76 -200 112 -63 36 -140 79 -170 96 -143 81 -280
161 -333 194 l-57 38 16 37 c8 20 16 58 17 84 1 25 6 44 11 41 5 -4 6 6 2 21
-4 16 -2 34 4 42 7 7 9 18 5 23 -13 22 42 96 85 113 14 6 57 19 95 29 57 15
62 18 25 14 -25 -3 -56 -7 -70 -10 l-25 -6 25 13 25 12 -30 4 c-16 2 -34 8
-40 14 -7 8 -4 9 9 4 11 -4 44 -9 75 -12 71 -8 184 24 246 69 78 56 191 167
178 175 -8 5 -8 12 3 26 14 20 14 20 14 0 0 -17 3 -16 20 6 28 35 73 130 66
138 -15 14 -42 -31 -45 -75 -1 -7 -8 -10 -16 -7 -9 4 -15 0 -15 -7 0 -8 -15
-21 -33 -29 -19 -9 -31 -21 -29 -31 1 -8 -7 -25 -18 -37 -11 -12 -19 -27 -18
-34 2 -7 -16 -19 -39 -27 -46 -16 -54 -27 -25 -34 10 -3 5 -5 -12 -6 -22 -1
-27 -4 -21 -18 4 -11 3 -14 -3 -8 -5 6 -12 26 -16 45 -5 27 -4 32 6 22 21 -21
32 -13 12 11 -19 22 -19 22 2 5 29 -25 41 -22 18 4 -15 19 -16 20 -1 9 10 -8
17 -9 17 -3 0 6 -4 14 -10 17 -12 7 -14 36 -2 34 18 -3 21 3 12 27 -7 16 -7
23 0 19 6 -3 10 1 10 10 0 10 5 13 12 9 7 -5 9 -2 5 9 -4 11 1 18 16 22 59 18
100 45 67 45 -15 0 -12 27 3 33 8 3 20 2 27 -3 10 -6 9 -9 -1 -13 -8 -3 3 -6
23 -6 28 -1 40 4 48 20 7 11 10 23 7 25 -8 8 -41 7 -61 -1 -12 -6 -17 -5 -13
2 4 6 -3 8 -18 5 -14 -2 -28 -8 -31 -13 -3 -5 -10 -9 -15 -9 -6 0 -7 5 -4 10
10 17 -4 12 -63 -23 -31 -18 -85 -44 -119 -57 -34 -13 -60 -26 -59 -28 7 -6
109 27 134 44 17 11 27 13 35 5 8 -8 7 -11 -5 -11 -9 0 -18 -6 -21 -14 -3 -8
-25 -17 -49 -21 -24 -4 -55 -16 -70 -27 -16 -11 -28 -17 -28 -13 0 3 -10 -1
-22 -9 -13 -7 -31 -12 -41 -11 -9 2 -15 -1 -11 -6 3 -5 -1 -9 -8 -9 -8 0 -19
-5 -26 -12 -9 -9 -8 -16 5 -32 10 -12 11 -15 3 -8 -25 21 -57 14 -84 -20 -24
-31 -24 -33 -8 -53 17 -20 17 -20 -4 -2 -25 21 -40 22 -48 2 -4 -11 1 -15 17
-15 17 0 19 -2 8 -9 -8 -5 -12 -18 -9 -29 4 -15 2 -19 -8 -15 -19 7 -28 46
-21 91 5 27 18 47 49 74 45 38 168 104 251 133 71 25 52 28 -27 4 -107 -32
-243 -121 -283 -185 -12 -19 -12 -19 -7 1 6 20 5 20 -10 1 -9 -11 -16 -23 -16
-27 0 -4 -8 -9 -17 -12 -10 -2 -26 -8 -36 -12 -15 -6 -17 -3 -13 19 7 38 -7
32 -27 -11 -17 -39 -16 -53 5 -35 7 5 27 8 45 6 24 -2 33 1 36 14 3 12 5 11 6
-5 1 -20 -4 -23 -36 -23 -42 0 -40 -9 3 -14 16 -2 32 -4 36 -5 4 0 15 -16 24
-33 15 -29 18 -31 24 -14 6 19 7 19 15 0 4 -10 9 -27 10 -37 1 -11 8 -23 16
-28 9 -5 10 -9 2 -9 -6 0 -25 -12 -43 -26 -19 -17 -44 -27 -66 -27 -25 -1 -33
-5 -29 -15 3 -7 5 -16 5 -18 0 -3 5 -2 10 1 6 3 10 0 10 -9 0 -22 -11 -46 -22
-46 -5 0 -6 5 -3 10 8 14 -4 32 -16 24 -6 -3 -4 -15 5 -30 19 -27 20 -38 5
-29 -5 4 -14 18 -19 31 -5 13 -13 24 -18 24 -15 0 -1 -47 20 -69 12 -14 17
-29 13 -41 -4 -11 1 -34 9 -52 17 -34 22 -64 5 -36 -14 25 -42 11 -36 -18 3
-17 0 -24 -10 -24 -10 0 -13 -6 -9 -17 4 -9 2 -19 -3 -23 -6 -3 -12 -16 -14
-28 -4 -29 -22 -48 -31 -33 -10 15 -26 14 -22 -1 1 -7 1 -10 -1 -5 -3 4 -8 5
-13 2 -4 -3 -13 2 -20 10 -11 13 -10 14 4 9 14 -5 15 -3 6 21 -6 15 -8 30 -5
35 3 5 1 11 -4 14 -12 8 -22 -20 -15 -39 4 -8 1 -15 -5 -15 -17 0 -13 -12 14
-44 32 -37 33 -55 1 -21 -13 14 -26 22 -29 18 -6 -10 38 -63 53 -63 5 0 10
-15 10 -33 0 -18 5 -38 12 -45 9 -9 9 -12 -1 -12 -9 0 -12 -10 -9 -29 3 -20
-1 -33 -13 -42 -14 -10 -15 -17 -8 -31 6 -11 8 -27 6 -36 -3 -12 -5 -11 -6 6
0 12 -5 22 -9 22 -5 0 -16 16 -25 35 -9 19 -21 35 -27 35 -5 0 -10 8 -10 18 0
14 -2 15 -10 2 -6 -10 -4 -21 6 -35 8 -11 19 -30 24 -42 5 -13 14 -23 20 -23
5 0 10 -7 10 -16 0 -12 -5 -11 -20 7 -10 13 -19 18 -20 11 0 -9 -8 -10 -27 -6
-25 7 -27 6 -15 -9 11 -13 11 -22 -4 -52 -16 -33 -16 -39 -1 -69 9 -21 12 -38
6 -47 -6 -10 -9 -7 -9 13 0 15 -4 29 -9 32 -5 4 -7 -4 -3 -16 4 -15 2 -19 -8
-13 -7 4 -16 2 -20 -5 -6 -9 -10 -7 -15 9 -9 28 -25 27 -25 -2 0 -16 -9 -28
-25 -35 -15 -7 -25 -8 -25 -2 0 6 -5 10 -11 10 -5 0 -7 -5 -4 -10 4 -6 3 -25
-1 -43 l-8 -32 -7 30 c-6 29 -7 29 -14 7 -6 -17 -10 -20 -21 -11 -10 8 -15 5
-19 -18 -10 -42 -13 -50 -14 -30 -1 25 -21 21 -22 -5 -1 -22 -1 -22 -9 2 l-8
25 -7 -22 c-8 -27 -13 -28 -39 -8 -12 9 -17 21 -13 36 3 11 3 18 0 15 -4 -3
-13 0 -21 7 -13 10 -15 9 -10 -3 7 -20 -26 -87 -36 -71 -4 6 -2 11 3 11 6 0
10 15 8 34 -1 27 -5 32 -15 24 -7 -6 -10 -18 -7 -27 4 -11 1 -10 -15 4 -11 10
-23 15 -27 12 -6 -7 -53 42 -53 56 0 4 -12 12 -27 18 -20 7 -24 12 -14 18 9 6
11 16 6 31 -5 17 -4 22 6 18 9 -4 15 3 16 20 1 17 -2 21 -7 11 -11 -16 -12
-15 -39 39 -12 23 -23 42 -25 42 -7 0 19 -65 29 -72 6 -5 6 -8 -2 -8 -12 0
-26 17 -29 36 -1 6 -5 21 -8 32 -11 33 9 34 53 1 23 -16 46 -27 52 -23 6 3 17
-2 24 -12 14 -18 14 -18 15 -1 0 10 4 16 9 12 6 -3 8 -15 6 -27 -3 -12 0 -27
6 -34 6 -7 7 -19 3 -25 -4 -7 -3 -9 3 -6 6 4 14 0 17 -9 8 -22 8 -26 -4 -19
-5 3 -10 1 -10 -4 0 -6 5 -11 11 -11 5 0 8 -4 5 -9 -7 -11 34 -2 52 12 7 5 15
7 19 3 3 -3 1 -6 -5 -6 -7 0 -12 -5 -12 -11 0 -6 7 -9 15 -5 8 3 15 1 15 -4 0
-6 5 -10 10 -10 6 0 10 7 10 15 0 9 10 19 23 24 28 11 31 8 17 -18 -6 -12 -7
-21 -2 -21 5 0 14 11 21 24 7 13 24 29 37 35 25 11 28 19 16 38 -5 8 -17 7
-43 -6 -28 -14 -36 -15 -36 -4 0 7 4 14 9 14 18 3 24 5 56 19 18 9 30 20 27
27 -3 8 4 13 18 13 30 1 98 33 118 56 12 14 14 25 8 43 l-9 23 -19 -23 c-11
-13 -16 -28 -13 -33 3 -6 7 -5 10 2 2 7 8 12 14 12 6 0 6 -6 -2 -15 -7 -8 -16
-12 -21 -10 -4 3 -12 -2 -16 -10 -6 -9 -29 -18 -59 -21 -64 -6 -125 26 -131
69 -2 16 -12 38 -22 48 -18 20 -19 20 -26 -8 -7 -30 -32 -63 -48 -63 -5 0 -15
-8 -22 -17 -14 -18 -77 -21 -98 -3 -6 6 -21 18 -33 28 -11 9 -24 26 -29 37 -7
19 -8 19 -15 -5 -8 -25 -8 -25 -10 5 -1 17 -1 37 0 45 1 11 -3 9 -15 -5 -16
-20 -16 -20 -10 3 4 13 2 22 -5 22 -6 0 -8 11 -5 28 6 26 6 26 -9 8 -9 -11
-16 -36 -16 -55 -1 -32 -2 -34 -12 -16 -7 11 -13 27 -13 35 -4 44 -6 50 -16
50 -7 0 -8 -11 -4 -30 8 -38 -2 -39 -17 -2 l-11 27 -8 -35 c-5 -19 -6 -41 -4
-47 2 -7 1 -13 -4 -13 -16 0 -19 74 -4 104 14 27 14 29 -6 23 -18 -4 -19 -1
-15 27 4 24 3 28 -5 16 -8 -11 -10 -2 -9 37 1 29 8 55 14 57 9 3 10 -4 2 -31
-5 -19 -7 -38 -4 -41 13 -12 28 18 30 60 1 41 0 43 -25 40 -17 -1 -26 3 -26
13 0 9 6 13 16 10 9 -2 29 2 45 10 24 13 27 13 23 0 -4 -9 -1 -12 9 -8 8 3 14
19 14 38 0 26 4 33 18 30 9 -1 11 0 5 2 -10 3 -10 10 -2 24 15 29 7 72 -13 75
-10 1 -18 -3 -18 -9 0 -22 -13 4 -16 34 -3 24 0 30 10 26 8 -3 17 -1 19 6 6
17 -14 58 -24 51 -5 -3 -9 0 -9 5 0 23 -16 9 -18 -15 -1 -20 2 -25 14 -20 15
6 15 4 0 -18 -19 -30 -21 -53 -4 -58 10 -4 10 -10 0 -32 -8 -17 -9 -33 -3 -43
7 -14 10 -13 20 5 15 28 31 29 24 2 -3 -11 -9 -17 -14 -14 -5 3 -9 -7 -9 -23
0 -20 -3 -24 -9 -14 -7 11 -11 10 -21 -5 -8 -14 -10 -15 -6 -2 2 9 -2 24 -9
35 -14 17 -14 17 -15 0 0 -10 -4 -16 -9 -13 -9 6 -26 92 -22 114 1 6 -3 12 -9
12 -6 0 -8 5 -4 11 4 8 9 7 15 -2 12 -20 23 -3 25 39 2 36 2 37 -13 15 -21
-31 -38 -29 -18 1 11 17 13 26 5 31 -6 4 -12 5 -13 4 -1 -2 -11 -14 -21 -26
-16 -19 -17 -25 -6 -38 10 -12 10 -19 2 -27 -17 -17 -15 -68 2 -74 26 -10 25
-31 -2 -55 -14 -13 -20 -16 -12 -6 11 14 11 25 3 50 -7 18 -11 55 -11 83 0 40
-5 57 -21 73 -11 11 -21 18 -21 15 0 -3 -13 4 -28 15 -21 14 -55 22 -131 29
-92 8 -111 14 -196 56 -52 26 -95 50 -95 52 0 4 26 -6 112 -45 25 -12 53 -18
62 -15 9 3 16 1 16 -6 0 -7 8 -9 21 -5 12 4 24 2 28 -4 4 -6 32 -13 62 -17 29
-3 56 -7 58 -9 8 -8 32 25 26 35 -4 6 -1 18 7 27 11 14 11 16 -1 8 -11 -6 -13
-4 -8 8 4 12 2 14 -10 10 -11 -4 -14 -2 -9 5 16 26 -14 10 -34 -18 -12 -16
-25 -30 -30 -30 -8 0 12 28 53 71 16 18 16 19 -3 19 -20 0 -20 1 -4 25 22 33
7 31 -36 -5 -49 -43 -58 -37 -10 6 44 40 53 65 18 56 -14 -3 -19 -1 -14 6 10
17 -34 42 -63 35 -14 -3 -30 -10 -35 -14 -6 -5 -15 -9 -20 -9 -6 0 2 8 17 19
28 18 28 18 6 24 -14 4 -30 0 -40 -9 -16 -15 -17 -14 -12 5 6 22 -12 30 -20 9
-3 -7 -6 -5 -6 6 -1 19 -1 19 -23 0 -13 -10 -17 -12 -11 -4 14 18 1 46 -16 36
-6 -4 -11 -3 -11 2 0 5 -15 15 -32 22 -18 7 -55 21 -81 31 -26 11 -52 17 -56
14 -5 -3 -11 0 -13 5 -2 6 -13 12 -26 13 -24 1 -29 12 -11 22 12 8 103 -24
206 -71 40 -19 79 -34 86 -34 8 0 31 -7 50 -15 20 -8 42 -15 49 -14 18 1 -63
37 -85 38 -10 1 -60 21 -111 46 -52 25 -98 45 -102 45 -5 0 -52 16 -103 36
-103 39 -132 37 -151 -8 -8 -21 -9 -20 -9 10 -1 25 5 35 23 43 20 10 46 4 158
-36 73 -26 160 -56 193 -67 33 -11 71 -26 85 -33 14 -8 54 -28 90 -45 64 -31
100 -56 100 -71 0 -4 -11 3 -25 16 -13 14 -29 25 -35 25 -6 0 3 -12 21 -27 18
-16 36 -27 40 -26 3 1 17 -9 29 -22 43 -46 42 -25 -2 26 -30 36 -62 60 -116
86 -74 36 -95 56 -29 28 20 -8 47 -15 59 -14 21 0 -54 26 -92 32 -8 1 -18 6
-21 10 -3 4 -28 11 -56 16 -28 4 -84 21 -124 38 -199 83 -256 97 -294 69z
m135 -62 c25 -15 25 -15 -10 -10 -72 10 -100 19 -94 28 8 12 70 1 104 -18z
m-75 -104 c-8 -13 14 -42 25 -35 5 3 11 1 15 -5 3 -5 0 -10 -7 -10 -10 0 -9
-3 2 -10 8 -5 12 -12 8 -15 -8 -8 -58 53 -58 71 0 8 5 14 11 14 5 0 7 -5 4
-10z m296 -43 c-10 -9 -11 -8 -5 6 3 10 9 15 12 12 3 -3 0 -11 -7 -18z m1957
-2 c-3 -3 -9 2 -12 12 -6 14 -5 15 5 6 7 -7 10 -15 7 -18z m-79 -48 c-2 -3
-15 10 -28 27 l-24 31 28 -27 c16 -15 27 -29 24 -31z m41 0 c0 -12 0 -11 -24
28 l-17 30 20 -24 c12 -13 21 -28 21 -34z m-56 -52 c24 -47 24 -49 3 -23 -12
15 -28 42 -35 60 -16 44 2 22 32 -37z m-1701 0 c-20 -25 -39 -45 -41 -45 -6 0
15 27 47 63 39 43 36 31 -6 -18z m77 31 c0 -2 -8 -10 -17 -17 -16 -13 -17 -12
-4 4 13 16 21 21 21 13z m1520 -6 c0 -5 -2 -10 -4 -10 -3 0 -8 5 -11 10 -3 6
-1 10 4 10 6 0 11 -4 11 -10z m224 -6 c3 -8 2 -12 -4 -9 -6 3 -10 10 -10 16 0
14 7 11 14 -7z m-2161 -45 c6 -21 6 -21 -19 2 -29 27 -32 44 -5 30 10 -6 21
-20 24 -32z m2166 -17 c-21 -58 -40 -71 -124 -86 -49 -9 -84 -11 -89 -5 -6 6
-3 9 10 10 10 1 35 3 54 6 19 2 44 4 55 4 18 0 18 2 -5 19 l-25 19 45 -2 c35
-2 45 2 48 16 2 11 -3 17 -16 17 -11 0 -26 8 -33 18 -11 14 -11 15 1 5 14 -13
60 -18 60 -7 0 3 -5 14 -11 25 -10 20 -10 20 15 4 21 -14 23 -20 15 -43z
m-1959 35 c0 -2 -10 -12 -22 -23 l-23 -19 19 23 c18 21 26 27 26 19z m1583
-34 c-3 -7 1 -21 8 -30 13 -15 12 -15 -7 -5 -16 8 -20 18 -16 42 3 21 7 28 12
19 5 -7 6 -18 3 -26z m323 -21 c-10 -2 -22 0 -28 6 -6 6 0 7 19 4 21 -5 23 -7
9 -10z m-191 -12 c10 -11 16 -20 13 -20 -3 0 -13 9 -23 20 -10 11 -16 20 -13
20 3 0 13 -9 23 -20z m-1615 -12 c-12 -10 -19 -22 -16 -27 3 -5 -1 -11 -9 -15
-9 -3 -15 0 -15 10 0 11 -6 14 -22 9 -21 -6 -21 -4 4 17 15 13 39 23 53 23
l26 0 -21 -17z m-100 2 c0 -5 -2 -10 -4 -10 -3 0 -8 5 -11 10 -3 6 -1 10 4 10
6 0 11 -4 11 -10z m151 -12 c-32 -20 -32 -22 -12 -29 28 -11 27 -14 -12 -16
-27 -2 -33 1 -33 17 0 12 7 20 16 20 9 0 25 7 36 15 10 8 24 14 29 15 6 0 -5
-10 -24 -22z m306 -300 c-3 -8 -6 -5 -6 6 -1 11 2 17 5 13 3 -3 4 -12 1 -19z
m46 -92 c17 -13 16 -14 -3 -19 -11 -3 -24 -17 -30 -31 -11 -31 -17 -33 -15 -6
1 11 10 27 21 36 17 14 17 15 1 10 -10 -3 -16 -2 -12 3 3 5 -1 12 -7 14 -7 3
-4 6 7 6 11 0 28 -6 38 -13z m1131 -190 c44 -29 109 -67 143 -86 35 -18 60
-37 56 -43 -3 -6 -1 -7 6 -3 6 4 24 -2 40 -13 16 -12 33 -21 38 -21 24 -1 44
-29 37 -54 -5 -21 -9 -24 -24 -16 -10 6 -27 7 -37 3 -17 -6 -17 -6 0 14 12 14
15 23 8 28 -6 3 -11 1 -11 -6 0 -6 -7 -17 -15 -23 -14 -10 -14 -14 4 -33 11
-11 17 -23 14 -27 -3 -3 -14 6 -25 20 -18 22 -18 27 -6 47 15 23 13 47 -4 47
-5 0 -6 -9 -3 -20 4 -11 2 -20 -4 -20 -15 0 -44 47 -36 60 3 5 2 10 -4 10 -5
0 -13 9 -16 20 -3 11 -13 20 -21 20 -11 0 -10 -5 5 -22 16 -17 18 -24 9 -35
-9 -11 -6 -19 13 -36 14 -12 20 -18 13 -14 -17 11 -24 -15 -8 -31 8 -7 10 -20
6 -30 -6 -14 -7 -14 -10 6 -2 12 -13 27 -24 33 -17 9 -20 9 -15 -3 5 -16 -49
-75 -60 -64 -3 3 5 14 18 25 13 11 19 20 13 21 -6 0 -14 -3 -18 -7 -4 -5 -13
-8 -19 -8 -7 0 -12 -6 -12 -13 0 -7 -5 -16 -11 -20 -6 -4 -14 -14 -17 -22 -4
-12 -6 -11 -6 3 -1 9 -5 17 -10 17 -5 0 -11 14 -15 31 -3 17 -10 28 -15 24 -6
-3 -8 -12 -4 -20 3 -8 0 -15 -6 -15 -6 0 -11 4 -11 9 0 11 -19 9 -40 -4 -8 -5
-21 -10 -30 -11 -27 -2 -45 -9 -51 -17 -3 -5 -9 -2 -12 6 -4 11 0 15 14 12 22
-5 26 10 4 19 -8 3 -15 11 -15 18 0 10 2 10 9 0 6 -11 11 -10 25 3 14 15 20
13 18 -6 -1 -3 6 -6 14 -6 8 0 13 6 10 14 -3 7 0 13 7 14 7 0 3 4 -8 9 -11 5
-14 9 -7 9 7 1 10 6 7 11 -7 11 30 8 41 -3 10 -10 24 -9 24 2 0 5 -9 13 -20
16 -11 3 -20 11 -20 17 0 5 6 8 14 5 7 -3 19 0 25 6 8 8 14 7 24 -2 10 -11 10
-13 0 -7 -8 4 -13 2 -14 -6 -1 -7 -2 -17 -4 -23 -1 -5 -3 -16 -3 -23 -1 -7 -9
-12 -18 -10 -10 2 -19 -2 -21 -8 -5 -15 37 -10 47 5 5 9 10 10 14 2 10 -16 46
-14 52 3 3 8 12 12 20 9 8 -3 14 -1 14 5 0 17 -28 22 -40 7 -10 -12 -14 -12
-26 0 -21 20 -18 23 22 21 20 -1 38 2 41 7 2 4 1 7 -4 6 -21 -4 -33 2 -33 17
0 8 4 13 8 10 5 -3 9 1 9 9 0 8 -4 15 -9 15 -5 0 -7 4 -3 9 3 5 1 12 -5 16 -5
3 -10 -1 -10 -10 0 -9 -4 -14 -9 -10 -6 3 -14 -3 -20 -12 -5 -10 -13 -15 -17
-11 -4 5 -14 2 -22 -5 -13 -10 -14 -9 -3 11 6 12 8 22 4 22 -4 0 2 7 13 16 10
8 13 13 7 9 -9 -4 -13 2 -14 17 -1 17 -3 18 -6 6 -4 -18 -23 -25 -23 -10 0 5
-6 9 -13 9 -8 0 -14 -7 -14 -14 0 -8 6 -12 14 -9 17 7 37 -30 21 -40 -6 -4
-14 -2 -16 4 -2 7 -8 10 -12 7 -5 -3 -6 -13 -3 -23 6 -15 5 -15 -10 -3 -9 7
-15 17 -12 20 2 4 -2 8 -10 8 -8 0 -15 -4 -15 -9 0 -5 -7 -2 -16 7 -18 18 -30
110 -14 100 6 -3 10 1 10 9 0 9 5 16 11 16 6 0 8 9 4 21 -9 27 12 41 38 27 11
-5 56 -33 101 -62z m-204 -6 c0 -5 -5 -10 -11 -10 -7 0 -9 -10 -4 -27 6 -27 6
-27 -8 -8 -11 14 -12 25 -6 37 10 19 29 24 29 8z m-980 -59 c0 -11 5 -23 10
-26 6 -3 10 -20 10 -36 0 -18 4 -28 10 -24 9 6 14 -14 11 -42 -1 -7 5 -33 14
-59 8 -25 12 -50 9 -56 -4 -6 -2 -8 3 -5 9 6 27 -32 20 -39 -1 -1 -20 10 -43
25 -30 21 -46 26 -63 20 -15 -6 -20 -5 -15 2 4 7 1 10 -7 7 -8 -3 -25 4 -38
16 -23 20 -24 20 -18 1 7 -19 6 -19 -7 -2 -18 24 -28 21 -22 -5 3 -13 3 -17 0
-10 -3 6 -10 12 -15 12 -6 0 -7 -4 -4 -10 3 -6 -1 -7 -9 -4 -13 5 -15 -2 -13
-40 1 -25 0 -46 -4 -46 -11 0 -17 63 -8 94 5 16 7 31 5 34 -8 7 -47 -19 -41
-28 3 -5 1 -11 -5 -15 -15 -9 -12 -28 3 -19 9 5 9 4 0 -6 -7 -7 -23 -14 -37
-16 -19 -2 -27 4 -35 27 -5 16 -6 29 -1 29 5 0 10 -9 12 -20 4 -27 22 -31 26
-6 3 11 0 16 -7 12 -6 -4 -11 -1 -11 7 0 15 -29 32 -31 19 -5 -31 -3 -84 3
-88 5 -3 6 -9 3 -13 -2 -5 7 -13 22 -20 19 -9 23 -15 15 -23 -11 -11 3 -56 21
-69 4 -3 -2 -14 -13 -24 -20 -18 -20 -17 -26 14 -5 22 -11 30 -20 27 -8 -4
-21 -9 -29 -12 -10 -4 -18 3 -25 20 -11 30 -20 34 -18 9 4 -49 -2 -60 -27 -58
-14 2 -25 -1 -25 -6 0 -5 4 -9 8 -9 5 0 14 -11 20 -25 13 -28 -2 -46 -21 -25
-9 10 -9 11 1 6 27 -16 10 19 -22 44 -18 14 -19 14 -5 -7 12 -20 11 -27 -5
-54 -10 -18 -14 -29 -8 -25 6 4 23 -1 37 -10 14 -9 25 -12 25 -8 0 5 10 10 23
10 16 1 23 -4 24 -17 1 -10 -2 -21 -8 -24 -5 -4 -9 2 -9 11 0 14 -3 15 -12 6
-7 -7 -23 -12 -38 -12 -19 0 -21 3 -11 9 11 7 6 12 -20 19 -31 8 -68 3 -41 -6
7 -2 12 -8 12 -14 0 -5 -9 -6 -22 -3 -16 6 -20 4 -15 -9 8 -20 -11 -32 -26
-17 -9 9 -8 11 5 6 13 -5 15 -2 11 14 -3 12 -1 21 6 21 23 0 10 17 -24 30 -25
10 -34 18 -30 30 11 35 -25 57 -99 59 -43 2 -66 -1 -62 -8 4 -5 2 -12 -4 -16
-5 -3 -7 -18 -4 -33 4 -21 3 -24 -5 -12 -10 13 -12 13 -20 0 -5 -8 -7 -19 -4
-25 3 -5 0 -5 -7 2 -10 9 -9 17 6 42 10 17 22 31 26 31 4 0 2 11 -4 25 -6 14
-9 27 -7 29 26 22 133 75 141 70 6 -4 8 -3 5 3 -3 5 40 37 96 70 162 96 147
93 147 29 0 -30 5 -58 11 -62 7 -4 10 -1 7 7 -3 8 -1 22 4 33 7 13 7 16 -1 12
-6 -4 -11 -2 -11 3 0 6 6 11 14 11 12 0 12 5 3 30 -6 16 -9 31 -7 34 3 2 48
29 100 59 59 35 97 52 101 45 4 -6 12 -7 19 -3 9 6 9 9 1 15 -7 4 11 21 46 42
69 43 73 44 73 19z m1007 -45 c-3 -8 -1 -17 6 -19 8 -3 7 -10 -6 -24 -9 -11
-14 -23 -10 -28 5 -4 3 -5 -4 -1 -9 5 -10 14 -2 34 6 15 10 28 10 30 -3 9 0
22 5 22 3 0 4 -6 1 -14z m79 -53 c-7 -7 -26 7 -26 19 0 6 6 6 15 -2 9 -7 13
-15 11 -17z m-36 7 c0 -5 -2 -10 -4 -10 -2 0 -12 -3 -20 -6 -12 -5 -15 -2 -10
10 7 17 34 22 34 6z m20 -30 c0 -5 -5 -10 -11 -10 -5 0 -7 5 -4 10 3 6 8 10
11 10 2 0 4 -4 4 -10z m-956 -32 c8 13 26 7 26 -9 0 -18 -45 -2 -47 17 -3 18
-3 18 5 0 6 -14 11 -16 16 -8z m86 -32 c0 -6 -8 0 -17 14 l-17 24 -12 -35 c-7
-19 -13 -26 -13 -17 -1 9 4 28 11 42 l11 26 19 -22 c10 -11 18 -26 18 -32z
m845 44 c3 -5 1 -10 -4 -10 -6 0 -11 5 -11 10 0 6 2 10 4 10 3 0 8 -4 11 -10z
m497 -13 c-1 -8 2 -18 8 -22 6 -3 7 0 4 9 -9 23 4 20 71 -17 48 -27 61 -40 68
-68 5 -19 13 -38 18 -43 5 -6 4 5 -1 24 -5 19 -9 34 -7 35 1 1 39 -18 85 -43
62 -33 81 -47 72 -56 -8 -8 -13 -7 -20 4 -8 13 -10 13 -10 -1 0 -18 26 -33 41
-24 4 3 11 -7 15 -22 4 -15 11 -34 17 -41 5 -7 8 -15 5 -17 -2 -3 -17 11 -32
30 -16 19 -36 35 -45 35 -14 0 -14 -2 -1 -10 11 -8 7 -9 -15 -4 -16 4 -35 11
-42 16 -9 7 -11 1 -8 -22 7 -53 16 -72 31 -66 8 3 14 1 14 -4 0 -16 -30 -12
-36 4 -3 8 -13 12 -22 9 -12 -3 -13 -2 -5 4 9 7 10 18 2 46 -10 36 -22 46 -33
28 -3 -5 -15 -11 -25 -14 -19 -5 -19 -4 -4 19 8 13 19 22 23 19 5 -3 6 4 3 15
-3 11 -10 23 -16 27 -6 4 -8 0 -4 -10 3 -10 2 -17 -3 -17 -6 0 -10 5 -10 10 0
6 -5 10 -11 10 -6 0 -8 -8 -5 -17 3 -10 1 -25 -5 -33 -8 -11 -9 -9 -4 9 6 20
4 23 -10 17 -15 -5 -16 -4 -5 9 10 12 10 15 -2 15 -8 0 -20 -6 -28 -12 -8 -7
-6 -3 5 10 l19 23 -29 -7 c-17 -4 -27 -3 -22 2 12 12 45 15 52 4 10 -16 45
-12 45 6 0 8 -4 12 -10 9 -5 -3 -10 -2 -10 3 0 6 -20 22 -45 36 -32 19 -43 31
-39 44 5 13 4 14 -4 3 -8 -11 -14 -10 -36 4 -29 19 -28 18 -20 40 8 20 30 14
26 -8z m-1062 -7 c0 -5 -5 -10 -11 -10 -5 0 -7 5 -4 10 3 6 8 10 11 10 2 0 4
-4 4 -10z m-219 -17 c13 -16 12 -17 -3 -4 -17 13 -22 21 -14 21 2 0 10 -8 17
-17z m1134 -2 c3 -10 4 -25 3 -32 -2 -8 3 -13 10 -11 6 1 12 -3 12 -10 0 -6 8
-20 17 -30 15 -16 15 -21 3 -28 -9 -6 -17 -5 -21 2 -4 7 -8 5 -11 -3 -3 -8 -9
-10 -14 -6 -12 11 16 26 35 19 14 -5 14 -3 2 11 -7 9 -17 14 -22 12 -12 -8
-32 34 -26 56 3 10 1 19 -4 19 -5 0 -9 5 -9 10 0 17 18 11 25 -9z m-904 -23
c-3 -21 -6 -26 -9 -15 -3 17 3 47 11 47 2 0 1 -15 -2 -32z m25 -4 c-4 -14 -9
-24 -12 -21 -3 2 -2 17 2 31 3 15 9 25 11 22 3 -3 2 -17 -1 -32z m474 27 c0
-5 -7 -14 -15 -21 -8 -7 -13 -16 -10 -20 3 -4 -2 -13 -10 -20 -18 -15 -19 -9
-3 25 6 14 15 25 20 25 5 0 6 5 3 10 -3 6 -1 10 4 10 6 0 11 -4 11 -9z m345
-10 c-4 -12 0 -23 9 -28 11 -6 12 -13 6 -23 -8 -13 -10 -13 -10 1 0 23 -30 33
-31 11 -1 -15 -2 -15 -6 1 -3 10 3 27 13 38 22 24 27 24 19 0z m-1218 -13 c-3
-8 -6 -5 -6 6 -1 11 2 17 5 13 3 -3 4 -12 1 -19z m353 -3 c0 -8 -7 -15 -16
-15 -14 0 -14 3 -4 15 7 8 14 15 16 15 2 0 4 -7 4 -15z m67 -7 c-3 -8 -6 -5
-6 6 -1 11 2 17 5 13 3 -3 4 -12 1 -19z m1006 7 c15 -11 16 -14 2 -25 -8 -7
-12 -17 -8 -23 4 -6 1 -7 -7 -2 -7 4 -16 2 -21 -6 -6 -9 -12 -10 -16 -4 -5 6
-17 12 -28 13 -24 5 -31 10 -22 18 3 3 12 2 19 -2 20 -13 48 -15 48 -5 0 6 -4
13 -10 16 -16 10 -11 32 8 32 9 0 25 -5 35 -12z m-1733 -20 c0 -8 -2 -15 -4
-15 -2 0 -6 7 -10 15 -3 8 -1 15 4 15 6 0 10 -7 10 -15z m1270 -5 c0 -5 -2
-10 -4 -10 -3 0 -8 5 -11 10 -3 6 -1 10 4 10 6 0 11 -4 11 -10z m30 0 c0 -5
-5 -10 -11 -10 -5 0 -7 5 -4 10 3 6 8 10 11 10 2 0 4 -4 4 -10z m-943 -25 c-9
-19 -13 -21 -15 -9 -3 13 12 33 25 34 0 0 -4 -11 -10 -25z m730 6 c0 -11 -5
-19 -11 -18 -5 1 -13 -9 -17 -23 -4 -14 -8 -18 -8 -10 -1 10 -7 6 -17 -10 -13
-22 -14 -22 -9 -3 3 12 1 24 -5 28 -5 3 -10 11 -10 18 0 8 3 8 11 0 14 -14 39
-6 39 12 0 7 6 16 13 18 6 3 13 6 14 6 1 1 1 -8 0 -18z m368 -1 c-3 -5 -1 -11
5 -15 5 -3 10 -1 10 6 0 7 3 9 6 6 12 -12 -16 -35 -36 -30 -17 5 -20 22 -11
50 1 1 8 0 16 -3 8 -4 13 -10 10 -14z m-1069 -26 c-4 -9 -9 -15 -11 -12 -3 3
-3 13 1 22 4 9 9 15 11 12 3 -3 3 -13 -1 -22z m359 16 c-28 -10 -117 -11 -110
-1 3 5 33 9 67 9 40 0 56 -3 43 -8z m547 -36 c-9 -7 -19 -8 -20 -3 -2 5 -9 6
-15 2 -7 -3 -8 -2 -4 3 5 5 13 10 18 10 5 1 12 2 15 3 4 0 0 9 -7 19 -11 14
-10 14 9 -2 20 -18 21 -20 4 -32z m278 27 c0 -21 -46 -36 -57 -18 -3 6 -1 7 5
3 7 -4 12 -2 12 4 0 7 7 10 15 6 9 -3 15 0 15 9 0 8 2 15 5 15 3 0 5 -8 5 -19z
m230 9 c0 -5 -7 -10 -16 -10 -8 0 -12 5 -9 10 3 6 10 10 16 10 5 0 9 -4 9 -10z
m-1746 -16 c3 -8 2 -12 -4 -9 -6 3 -10 10 -10 16 0 14 7 11 14 -7z m567 -1
c13 -16 12 -17 -3 -4 -10 7 -18 15 -18 17 0 8 8 3 21 -13z m-631 -28 c14 -19
14 -19 -2 -6 -10 7 -18 18 -18 24 0 6 1 8 3 6 1 -2 9 -13 17 -24z m1144 8 c4
-10 4 -14 0 -10 -4 4 -13 2 -21 -4 -16 -14 -17 -3 0 16 15 18 14 18 21 -2z
m-877 -41 c-2 -26 -17 -18 -17 9 0 10 -5 19 -11 19 -5 0 -7 5 -4 10 9 15 34
-14 32 -38z m193 33 c-7 -8 -17 -12 -22 -9 -6 4 -5 10 3 15 22 14 33 10 19 -6z
m243 8 c-7 -2 -19 -2 -25 0 -7 3 -2 5 12 5 14 0 19 -2 13 -5z m1061 -9 c3 -8
2 -12 -4 -9 -6 3 -10 10 -10 16 0 14 7 11 14 -7z m-1468 -31 c-11 -11 -17 4
-9 23 7 18 8 18 11 1 2 -10 1 -21 -2 -24z m338 10 c-6 -22 -4 -25 11 -19 15 5
16 4 5 -9 -11 -14 -14 -13 -25 2 -10 13 -10 21 -1 35 15 25 18 23 10 -9z m566
6 c0 -6 -4 -7 -10 -4 -5 3 -10 11 -10 16 0 6 5 7 10 4 6 -3 10 -11 10 -16z
m258 8 c8 -10 6 -13 -7 -13 -11 0 -17 6 -14 13 3 7 6 13 8 13 1 0 7 -6 13 -13z
m-1469 -46 l-2 -26 -4 25 c-3 14 -10 32 -16 40 -11 13 -10 13 6 1 9 -7 16 -25
16 -40z m76 39 c3 -5 1 -10 -4 -10 -6 0 -11 5 -11 10 0 6 2 10 4 10 3 0 8 -4
11 -10z m115 -25 c0 -5 -5 -3 -10 5 -5 8 -10 20 -10 25 0 6 5 3 10 -5 5 -8 10
-19 10 -25z m34 27 c3 -5 -1 -9 -9 -9 -8 0 -15 4 -15 9 0 4 4 8 9 8 6 0 12 -4
15 -8z m194 -23 c-3 -8 -7 -3 -11 10 -4 17 -3 21 5 13 5 -5 8 -16 6 -23z m396
16 c-7 -17 -44 -21 -44 -4 0 6 7 9 15 6 8 -4 17 -2 20 3 9 15 15 12 9 -5z
m701 5 c-3 -5 -12 -10 -18 -10 -7 0 -6 4 3 10 19 12 23 12 15 0z m-1351 -17
c5 -12 4 -13 -7 -5 -8 7 -16 9 -20 6 -3 -3 -13 -2 -22 4 -14 7 -11 9 13 10 19
0 33 -5 36 -15z m-116 -18 c-3 -3 -9 2 -12 12 -6 14 -5 15 5 6 7 -7 10 -15 7
-18z m687 15 c3 -5 1 -10 -4 -10 -6 0 -11 5 -11 10 0 6 2 10 4 10 3 0 8 -4 11
-10z m1063 -15 c-3 -3 -9 2 -12 12 -6 14 -5 15 5 6 7 -7 10 -15 7 -18z m-1823
-4 c-3 -6 -11 -11 -16 -11 -5 0 -4 6 3 14 14 16 24 13 13 -3z m255 4 c4 3 6
-4 3 -16 -4 -16 -8 -17 -14 -7 -5 7 -8 20 -8 28 0 10 2 11 6 2 2 -6 8 -10 13
-7z m1250 -5 c0 -5 -2 -10 -4 -10 -3 0 -8 5 -11 10 -3 6 -1 10 4 10 6 0 11 -4
11 -10z m50 6 c0 -3 -4 -8 -10 -11 -5 -3 -10 -1 -10 4 0 6 5 11 10 11 6 0 10
-2 10 -4z m240 -12 c0 5 6 3 13 -3 8 -6 16 -8 20 -5 7 8 33 -43 40 -81 4 -21
0 -17 -14 17 -21 46 -42 60 -80 53 -17 -3 -18 -1 -8 17 9 17 13 18 20 7 5 -8
9 -10 9 -5z m425 -31 c11 -7 15 -13 9 -13 -5 0 -20 7 -32 16 -28 19 -41 11
-21 -12 12 -15 12 -17 -1 -12 -8 2 -17 19 -21 37 l-7 32 27 -17 c14 -9 35 -23
46 -31z m-2101 22 c3 -8 1 -15 -4 -15 -6 0 -10 7 -10 15 0 8 2 15 4 15 2 0 6
-7 10 -15z m1306 11 c0 -3 -4 -8 -10 -11 -5 -3 -10 -1 -10 4 0 6 5 11 10 11 6
0 10 -2 10 -4z m215 -64 c2 -2 17 4 35 13 18 9 34 15 36 12 6 -6 -38 -35 -73
-48 -22 -8 -24 -7 -15 4 9 11 7 18 -8 32 -11 10 -20 28 -20 39 0 17 4 14 21
-14 12 -19 23 -36 24 -38z m-1555 37 c0 -6 -4 -7 -10 -4 -5 3 -10 11 -10 16 0
6 5 7 10 4 6 -3 10 -11 10 -16z m214 -3 c-3 -9 -13 -16 -22 -16 -13 0 -12 3 4
19 22 21 27 21 18 -3z m714 -13 c-12 -21 -22 -39 -24 -41 -1 -1 -4 6 -7 17 -3
12 0 19 6 18 6 -1 11 4 12 11 0 10 21 31 32 32 1 0 -7 -17 -19 -37z m225 22
c-3 -9 -8 -14 -10 -11 -3 3 -2 9 2 15 9 16 15 13 8 -4z m631 -1 c3 -8 2 -12
-4 -9 -6 3 -10 10 -10 16 0 14 7 11 14 -7z m-1486 -6 c17 -17 15 -32 -8 -58
-15 -18 -20 -19 -20 -7 0 9 7 20 17 25 20 12 10 47 -12 38 -8 -3 -17 -1 -20 4
-9 14 29 12 43 -2z m937 -7 c-3 -6 -11 -11 -16 -11 -5 0 -4 6 3 14 14 16 24
13 13 -3z m175 15 c0 -2 -7 -6 -15 -10 -8 -3 -15 -1 -15 4 0 6 7 10 15 10 8 0
15 -2 15 -4z m-1440 -15 c0 -5 -7 -14 -15 -21 -12 -10 -15 -10 -15 2 0 8 3 18
7 21 9 10 23 9 23 -2z m103 -20 c-2 -11 2 -21 9 -21 6 0 4 -8 -5 -18 -22 -24
-21 -29 3 -35 13 -3 18 -11 14 -20 -7 -19 22 -30 46 -17 28 15 32 12 13 -8
-14 -15 -23 -16 -43 -8 -39 15 -47 25 -30 37 13 9 13 10 -1 6 -9 -3 -24 4 -33
15 -16 19 -16 20 3 25 12 3 19 9 16 13 -3 5 -14 6 -25 3 -25 -7 -26 6 -2 35
21 26 38 23 35 -7z m87 -17 c0 -2 -7 -1 -15 2 -8 4 -15 10 -15 15 0 6 -10 4
-22 -2 -23 -12 -23 -12 -4 9 l19 22 18 -22 c11 -11 19 -22 19 -24z m114 32 c9
3 16 2 16 -4 0 -14 -34 -25 -38 -13 -2 6 -8 9 -13 5 -5 -3 -9 2 -9 12 0 13 3
14 14 5 7 -6 21 -9 30 -5z m595 -12 c-15 -18 -22 -13 -13 10 3 9 10 13 16 10
5 -3 4 -12 -3 -20z m981 16 c0 -5 -5 -10 -11 -10 -5 0 -7 5 -4 10 3 6 8 10 11
10 2 0 4 -4 4 -10z m-1416 -16 c3 -8 2 -12 -4 -9 -6 3 -10 10 -10 16 0 14 7
11 14 -7z m1271 -3 c-3 -6 -11 -11 -16 -11 -5 0 -4 6 3 14 14 16 24 13 13 -3z
m105 9 c0 -5 -5 -10 -11 -10 -5 0 -7 5 -4 10 3 6 8 10 11 10 2 0 4 -4 4 -10z
m-1953 -22 c-3 -8 -6 -5 -6 6 -1 11 2 17 5 13 3 -3 4 -12 1 -19z m149 -3 c-3
-15 0 -25 7 -25 6 0 2 -7 -9 -15 -19 -14 -19 -15 5 -33 17 -14 20 -21 11 -27
-7 -4 -15 -3 -19 2 -3 6 -16 13 -28 17 -13 4 -23 12 -23 18 0 6 6 6 15 -2 23
-19 19 6 -5 28 -20 18 -20 18 0 40 29 31 52 29 46 -3z m2257 -32 c32 -19 56
-38 53 -41 -3 -2 -12 0 -19 6 -8 7 -17 9 -20 5 -11 -11 -8 -23 5 -20 6 1 14
-6 16 -15 2 -10 -2 -18 -8 -18 -6 0 -9 4 -6 8 8 13 -28 11 -37 -2 -6 -7 -7 -5
-4 5 3 9 0 22 -6 28 -9 9 -8 11 6 5 17 -6 18 -5 6 15 -8 11 -17 21 -22 21 -4
0 -5 -6 -1 -12 5 -9 2 -8 -10 1 -13 11 -14 16 -4 22 12 8 9 10 -8 8 -4 0 -11
5 -16 13 -7 10 -11 10 -15 1 -2 -7 -9 -13 -15 -13 -7 0 -7 5 1 13 6 8 7 17 3
22 -10 11 32 -11 101 -52z m-2044 24 c1 15 38 5 38 -11 0 -15 -33 -14 -48 1
-6 6 -18 9 -25 6 -8 -3 -14 0 -14 5 0 17 34 19 42 2 4 -8 7 -10 7 -3z m166
-36 c17 -24 18 -25 1 -11 -17 13 -18 13 -15 -5 3 -11 10 -21 17 -21 6 -1 16
-2 21 -3 4 0 8 -11 7 -23 -1 -15 -7 -23 -19 -22 -9 1 -14 -2 -11 -7 3 -5 -3
-9 -12 -9 -10 0 -14 -3 -11 -7 11 -10 -13 -32 -28 -27 -7 3 -16 -3 -20 -15 -7
-24 -16 -26 -34 -8 -6 6 -26 12 -44 12 -26 0 -32 4 -30 20 1 10 -3 28 -8 40
-8 15 -5 14 11 -5 21 -24 21 -24 15 -2 -4 12 -4 22 0 22 12 0 22 -45 11 -52
-8 -6 -7 -8 2 -8 7 0 15 7 18 15 7 17 34 21 34 5 0 -5 11 -9 25 -8 30 3 30 6
8 37 -16 23 -17 23 -24 5 -6 -16 -8 -16 -8 -2 -1 9 6 24 15 32 8 9 12 16 7 16
-4 1 2 9 15 20 24 20 22 43 -3 34 -10 -4 -12 0 -8 15 5 19 6 19 27 4 12 -9 31
-28 41 -42z m758 39 c-12 -10 -28 -29 -37 -41 -9 -13 -19 -19 -23 -15 -5 5 -2
11 5 13 16 6 15 18 -4 37 -8 9 -11 16 -5 16 5 0 14 -7 19 -15 7 -14 11 -13 27
5 10 11 23 20 28 20 6 0 1 -9 -10 -20z m992 -10 c9 -16 11 -30 6 -30 -5 0 -11
8 -15 18 -3 9 -9 23 -12 30 -12 26 6 10 21 -18z m-2764 -32 c-6 -17 -11 -45
-11 -61 0 -30 -1 -30 -16 -11 -15 18 -15 18 -10 -8 7 -30 -7 -39 -41 -27 -13
5 -25 4 -28 -1 -4 -6 3 -10 15 -10 16 0 21 -5 18 -22 -2 -14 5 -31 17 -41 11
-10 14 -16 7 -12 -7 4 -19 1 -27 -5 -8 -6 -19 -9 -25 -5 -5 3 -10 1 -10 -4 0
-6 9 -11 20 -11 11 0 20 -7 20 -15 0 -19 4 -19 40 0 47 24 35 9 -16 -21 l-46
-27 -25 29 c-14 16 -24 22 -21 14 5 -17 -47 -54 -62 -45 -6 4 -6 -3 -1 -17 5
-15 16 -22 27 -20 18 2 18 2 1 -12 -11 -8 -25 -12 -32 -10 -7 3 -27 -1 -43
-10 -16 -8 -32 -13 -34 -10 -3 3 -8 -2 -11 -11 -8 -20 -5 -19 38 6 20 12 38
19 41 16 3 -3 -17 -17 -45 -31 -35 -18 -51 -22 -52 -14 0 7 -4 3 -9 -9 -6 -13
-18 -23 -30 -23 -11 0 -20 -4 -20 -10 0 -5 -5 -10 -10 -10 -6 0 -3 11 6 25 10
15 12 25 5 25 -6 0 -11 5 -11 10 0 19 27 10 38 -12 6 -13 11 -17 11 -10 1 7
-3 21 -8 30 -5 9 -5 26 0 37 4 11 8 16 8 12 1 -5 8 -1 17 8 14 13 19 14 25 3
6 -9 9 -9 9 -1 0 6 -4 15 -10 18 -5 3 -10 10 -10 15 0 12 52 -7 62 -23 4 -6
10 -8 13 -5 11 11 -27 44 -64 57 -42 14 -44 14 -35 -1 5 -9 4 -10 -3 -3 -5 6
-15 29 -22 53 -7 26 -16 40 -23 36 -6 -4 -8 -3 -4 4 7 12 173 102 188 102 5 0
18 9 30 20 11 10 36 26 55 35 19 9 51 28 71 41 41 28 50 20 33 -28z m1684 42
c3 -6 -1 -7 -9 -4 -18 7 -21 14 -7 14 6 0 13 -4 16 -10z m165 1 c0 -5 -7 -11
-14 -14 -10 -4 -13 -1 -9 9 6 15 23 19 23 5z m145 -1 c3 -5 1 -10 -4 -10 -6 0
-11 5 -11 10 0 6 2 10 4 10 3 0 8 -4 11 -10z m-1535 -22 c0 -19 -2 -20 -10 -8
-13 19 -13 30 0 30 6 0 10 -10 10 -22z m286 -5 c-10 -10 -19 5 -10 18 6 11 8
11 12 0 2 -7 1 -15 -2 -18z m374 1 c0 -2 -9 0 -20 6 -11 6 -20 13 -20 16 0 2
9 0 20 -6 11 -6 20 -13 20 -16z m988 1 c-3 -3 -9 2 -12 12 -6 14 -5 15 5 6 7
-7 10 -15 7 -18z m-647 -22 c-10 -17 -10 -16 -11 3 0 23 13 41 18 25 2 -6 -1
-18 -7 -28z m759 16 c0 -6 -4 -7 -10 -4 -5 3 -10 11 -10 16 0 6 5 7 10 4 6 -3
10 -11 10 -16z m-2079 -17 c6 -16 5 -22 -6 -22 -8 0 -15 5 -15 11 0 5 -4 7
-10 4 -16 -10 -12 -23 11 -36 15 -8 19 -8 15 0 -4 6 -1 11 8 11 8 0 18 -10 22
-22 6 -21 7 -21 20 -3 8 10 14 15 14 9 0 -5 -7 -18 -15 -28 -13 -17 -15 -18
-21 -2 -5 13 -9 14 -20 5 -9 -7 -11 -16 -6 -23 5 -6 3 -21 -4 -35 l-12 -23 -8
23 c-4 13 -7 36 -6 51 2 22 -1 26 -15 21 -15 -6 -16 -4 -6 8 10 12 8 17 -8 27
-23 15 -25 34 -2 25 10 -4 14 -2 10 5 -4 6 1 13 10 15 27 7 35 3 44 -21z m363
12 c5 -13 9 -14 21 -4 22 18 36 4 25 -25 -7 -17 -6 -25 1 -25 6 0 9 -7 5 -15
-4 -10 1 -15 14 -15 11 0 20 -5 20 -10 0 -7 6 -7 19 0 30 15 36 12 14 -7 -24
-22 -37 -53 -21 -53 6 0 9 -2 6 -5 -13 -14 -35 8 -30 31 3 19 0 24 -17 24 -22
0 -30 -20 -8 -20 6 -1 1 -7 -13 -15 -14 -8 -20 -15 -15 -16 9 -1 15 -3 36 -7
4 -1 3 -18 -1 -37 -4 -19 -5 -33 0 -30 4 2 6 -8 5 -23 -1 -18 -7 -28 -21 -31
-19 -3 -19 -3 0 18 13 14 15 21 6 21 -9 0 -11 9 -6 31 5 29 4 30 -11 18 -14
-12 -16 -12 -11 2 3 9 2 22 -2 30 -5 8 -5 19 1 26 6 7 8 17 4 23 -3 5 -1 10 4
10 6 0 11 8 11 18 0 13 -2 14 -9 3 -11 -17 -25 4 -15 22 5 8 2 8 -9 -2 -16
-13 -25 -2 -10 13 13 13 11 37 -3 43 -15 6 -19 23 -5 23 5 0 12 -7 15 -16z
m1363 -16 c-3 -7 -5 -2 -5 12 0 14 2 19 5 13 2 -7 2 -19 0 -25z m-1667 -3 c0
-7 -8 -12 -17 -10 -10 2 -21 4 -25 4 -15 2 -8 20 10 24 22 5 32 -1 32 -18z
m2323 10 c-3 -9 -8 -14 -10 -11 -3 3 -2 9 2 15 9 16 15 13 8 -4z m-1628 -6 c4
-6 13 -8 21 -5 18 7 18 3 -5 -22 -10 -12 -21 -19 -25 -15 -10 10 -7 25 4 18
17 -11 11 7 -7 21 -10 7 -13 14 -6 14 6 0 15 -5 18 -11z m690 -8 c3 -5 2 -12
-3 -15 -5 -3 -9 1 -9 9 0 17 3 19 12 6z m656 -14 c-10 -9 -11 -8 -5 6 3 10 9
15 12 12 3 -3 0 -11 -7 -18z m513 8 c-6 -16 -24 -21 -24 -7 0 11 11 22 21 22
5 0 6 -7 3 -15z m26 -13 c-6 -2 -10 -10 -10 -18 0 -8 -4 -14 -9 -14 -5 0 -4
13 2 30 7 20 14 25 19 17 4 -7 3 -13 -2 -15z m-1632 -7 c-3 -3 -9 2 -12 12 -6
14 -5 15 5 6 7 -7 10 -15 7 -18z m122 9 c0 -8 -4 -12 -10 -9 -5 3 -10 10 -10
16 0 5 5 9 10 9 6 0 10 -7 10 -16z m1350 -1 c0 -9 -3 -13 -7 -10 -3 4 -12 2
-20 -4 -10 -9 -13 -7 -13 10 0 14 6 21 20 21 12 0 20 -7 20 -17z m36 -10 c-7
-7 -26 7 -26 19 0 6 6 6 15 -2 9 -7 13 -15 11 -17z m-1566 -26 c0 -11 8 -26
18 -33 14 -12 15 -13 1 -8 -10 3 -20 1 -24 -5 -12 -21 -26 -12 -15 10 8 15 8
29 1 51 -9 26 -9 29 4 18 8 -7 15 -22 15 -33z m850 32 c0 -15 -18 -19 -23 -6
-3 8 1 14 9 14 8 0 14 -4 14 -8z m1158 -68 c51 -29 62 -40 58 -56 -4 -18 -4
-18 7 -4 12 15 17 14 65 -15 28 -17 52 -34 52 -38 0 -15 -31 -8 -36 7 -5 13
-9 13 -22 3 -13 -11 -15 -10 -10 3 5 13 -2 16 -34 17 -22 1 -44 4 -49 8 -5 3
-9 3 -9 0 0 -2 -2 -10 -5 -18 -4 -9 6 -14 31 -15 43 -2 66 -19 45 -32 -7 -5
-11 -14 -7 -19 4 -6 -2 -16 -13 -22 -14 -7 -22 -7 -27 2 -5 7 -3 8 6 3 8 -5
11 -3 8 5 -2 8 -13 18 -24 24 -10 6 -23 17 -27 24 -4 6 -15 12 -22 12 -8 0
-15 5 -15 10 0 6 7 10 16 8 10 -2 19 3 22 11 3 8 0 11 -7 7 -6 -4 -11 -2 -11
3 0 6 6 11 14 11 19 0 30 32 14 42 -18 11 -30 10 -23 -2 3 -5 1 -10 -5 -10 -7
0 -10 7 -6 18 4 11 0 10 -12 -6 l-18 -23 -2 28 c-1 15 -7 32 -14 38 -8 7 -9 6
-3 -4 6 -11 2 -13 -19 -9 -14 3 -29 1 -32 -3 -3 -5 0 -9 7 -9 7 0 10 -3 6 -6
-3 -3 -12 -2 -19 2 -7 5 -19 9 -26 10 -18 3 -29 14 -13 14 8 0 10 7 6 22 -6
17 -4 20 10 14 13 -5 16 -2 11 10 -5 13 1 12 31 -6 21 -12 66 -39 101 -59z
m-1005 54 c-3 -9 -8 -14 -10 -11 -3 3 -2 9 2 15 9 16 15 13 8 -4z m-469 -11
c3 -8 2 -12 -4 -9 -6 3 -10 10 -10 16 0 14 7 11 14 -7z m1181 6 c3 -5 1 -10
-4 -10 -6 0 -11 5 -11 10 0 6 2 10 4 10 3 0 8 -4 11 -10z m22 -12 c-3 -8 -6
-5 -6 6 -1 11 2 17 5 13 3 -3 4 -12 1 -19z m-187 2 c-8 -5 -19 -10 -25 -10 -5
0 -3 5 5 10 8 5 20 10 25 10 6 0 3 -5 -5 -10z m95 0 c-3 -5 -11 -10 -16 -10
-6 0 -7 5 -4 10 3 6 11 10 16 10 6 0 7 -4 4 -10z m162 -15 c0 -17 -13 -20 -21
-6 -4 5 0 12 6 14 7 3 13 6 14 6 0 1 1 -6 1 -14z m-2667 0 c0 -2 -9 -9 -20
-15 -12 -6 -20 -7 -20 -1 0 5 8 12 18 14 9 3 18 5 20 6 1 0 2 -1 2 -4z m240
-15 c0 -5 -2 -10 -4 -10 -3 0 -8 5 -11 10 -3 6 -1 10 4 10 6 0 11 -4 11 -10z
m43 -10 c-3 -11 -9 -20 -14 -20 -5 0 -9 9 -9 20 0 11 6 20 14 20 9 0 12 -7 9
-20z m532 0 c-18 -20 -18 -21 1 -35 16 -12 22 -12 42 1 13 9 26 14 28 11 3 -2
-7 -12 -21 -21 -20 -13 -30 -15 -40 -6 -8 7 -15 7 -19 1 -3 -5 0 -12 6 -15 10
-5 10 -7 1 -12 -7 -3 -13 -10 -13 -16 0 -5 16 -1 36 11 19 12 37 21 40 21 10
0 -32 -38 -54 -49 -21 -11 -26 -9 -46 13 -25 30 -36 33 -31 9 2 -10 4 -21 4
-25 1 -5 7 -7 14 -5 7 1 12 -9 12 -27 -1 -23 -9 -33 -43 -52 -33 -19 -47 -22
-62 -14 -10 5 -22 10 -27 10 -4 -1 3 -7 16 -14 23 -13 23 -13 -37 -50 -33 -20
-61 -36 -63 -36 -2 0 -5 18 -5 41 -2 35 1 40 17 36 26 -7 25 19 -1 33 -10 6
-37 8 -59 5 -35 -4 -39 -2 -34 12 6 14 3 14 -20 -3 -14 -10 -27 -22 -27 -26 0
-5 -4 -8 -10 -8 -5 0 -7 8 -3 18 6 16 5 16 -14 -1 -16 -14 -23 -15 -29 -6 -4
8 -3 10 5 5 7 -5 13 4 18 25 6 30 7 31 14 10 8 -21 10 -21 39 -6 18 10 30 23
30 36 0 13 4 18 12 13 8 -5 9 -2 5 10 -6 14 -3 17 8 12 10 -3 13 -2 10 5 -4 5
-1 16 5 24 9 11 7 14 -15 12 -14 -1 -30 -9 -35 -17 -8 -12 -10 -11 -10 8 0 12
3 21 8 21 22 -4 42 2 37 11 -3 6 -2 10 2 10 15 0 33 -23 33 -42 0 -10 5 -18
11 -18 5 0 7 5 4 10 -3 6 1 10 9 10 19 0 21 -11 4 -28 -9 -9 -9 -12 0 -12 7 0
12 5 12 10 0 14 13 12 36 -6 19 -15 19 -16 -1 -9 -11 3 -16 3 -12 -2 5 -4 24
-8 42 -9 46 -1 80 -30 63 -53 -10 -13 -10 -14 2 -3 17 14 34 16 25 2 -3 -5 -2
-10 4 -10 16 0 22 18 9 23 -10 4 -9 8 2 16 8 6 12 11 8 11 -3 0 -14 3 -24 7
-13 5 -15 3 -9 -8 5 -8 4 -11 0 -6 -15 13 -14 35 2 41 8 3 11 10 8 16 -8 13
19 40 40 40 10 0 13 5 9 11 -4 7 4 20 17 30 31 24 36 24 14 -1z m716 3 c13
-16 12 -17 -3 -4 -10 7 -18 15 -18 17 0 8 8 3 21 -13z m1174 -12 c-6 -5 -25
10 -25 20 0 5 6 4 14 -3 8 -7 12 -15 11 -17z m-2851 11 c2 -4 1 -14 -3 -21 -6
-9 -10 -7 -14 8 -5 20 7 29 17 13z m565 -9 c7 -15 5 -18 -15 -19 -26 -2 -30 6
-12 24 15 15 16 15 27 -5z m2391 -9 c0 -8 -4 -12 -10 -9 -5 3 -10 10 -10 16 0
5 5 9 10 9 6 0 10 -7 10 -16z m-2630 -1 c0 -5 -5 -15 -10 -23 -7 -12 -9 -10
-7 8 1 19 17 33 17 15z m-463 -25 c-3 -8 -6 -5 -6 6 -1 11 2 17 5 13 3 -3 4
-12 1 -19z m858 12 c3 -5 -1 -10 -9 -10 -9 0 -16 5 -16 10 0 6 4 10 9 10 6 0
13 -4 16 -10z m1880 -10 c10 -11 16 -20 13 -20 -3 0 -13 9 -23 20 -10 11 -16
20 -13 20 3 0 13 -9 23 -20z m-2312 -5 c-3 -9 -8 -14 -10 -11 -3 3 -2 9 2 15
9 16 15 13 8 -4z m107 -6 c0 -14 -17 -10 -23 5 -4 10 -1 13 9 9 7 -3 14 -9 14
-14z m670 11 c0 -5 -5 -10 -11 -10 -5 0 -7 5 -4 10 3 6 8 10 11 10 2 0 4 -4 4
-10z m-1047 -30 c-7 -25 -6 -25 -29 2 -15 19 -16 20 -1 9 15 -12 17 -11 17 3
0 10 4 15 9 12 5 -3 7 -15 4 -26z m402 20 c3 -5 1 -10 -4 -10 -6 0 -11 5 -11
10 0 6 2 10 4 10 3 0 8 -4 11 -10z m392 -10 c10 -11 23 -20 30 -20 7 0 10 -6
7 -13 -3 -8 -11 -14 -19 -14 -8 0 -12 4 -10 8 3 3 -1 12 -9 18 -11 9 -15 9
-19 -1 -3 -9 -11 -7 -26 9 -12 13 -16 18 -9 13 18 -15 31 -12 24 5 -8 22 11
18 31 -5z m2183 5 c0 -8 -4 -15 -10 -15 -5 0 -7 7 -4 15 4 8 8 15 10 15 2 0 4
-7 4 -15z m-2900 -5 c0 -5 -4 -10 -10 -10 -5 0 -10 5 -10 10 0 6 5 10 10 10 6
0 10 -4 10 -10z m1104 -5 c-4 -8 -10 -12 -15 -9 -11 6 -2 24 11 24 5 0 7 -7 4
-15z m-1036 -4 c11 -7 11 -9 -1 -14 -9 -3 -21 1 -27 9 -10 11 -10 14 1 14 8 0
20 -4 27 -9z m99 -6 c0 -8 -4 -15 -9 -15 -4 0 -8 7 -8 15 0 8 4 15 8 15 5 0 9
-7 9 -15z m817 -7 c-7 -23 -6 -23 15 -4 11 11 24 16 28 13 3 -4 1 -7 -5 -7 -7
0 -12 -7 -12 -15 0 -18 17 -20 23 -2 2 6 4 0 3 -15 -1 -22 -4 -24 -18 -17 -10
5 -18 14 -18 19 0 6 -3 9 -7 9 -20 -3 -29 3 -30 21 -1 12 4 20 13 20 11 0 13
-6 8 -22z m-503 -5 c12 -14 12 -16 0 -8 -11 6 -13 4 -9 -7 4 -9 0 -15 -8 -15
-8 0 -14 6 -14 14 0 7 6 13 13 13 8 0 7 4 -3 10 -8 5 -10 10 -4 10 6 0 18 -8
25 -17z m-367 -9 c3 -8 2 -12 -4 -9 -6 3 -10 10 -10 16 0 14 7 11 14 -7z m320
-9 c3 -10 0 -12 -12 -7 -16 6 -16 4 0 -20 16 -25 16 -27 -2 -43 -11 -10 -20
-13 -20 -7 0 6 6 12 13 15 9 3 7 10 -6 25 -13 14 -15 22 -7 27 6 4 9 13 6 21
-3 8 0 11 9 8 7 -3 16 -12 19 -19z m505 8 c-6 -7 -17 -13 -23 -12 -7 0 -6 2 2
6 6 2 10 8 8 12 -3 4 1 8 9 8 11 0 12 -4 4 -14z m-1574 -16 c-17 -13 -17 -14
4 -20 12 -3 21 0 21 6 0 6 3 8 6 4 4 -3 3 -14 0 -24 -6 -14 -9 -15 -15 -4 -7
11 -12 8 -21 -10 -10 -20 -10 -22 1 -12 9 9 16 10 26 2 16 -14 18 -53 1 -43
-8 5 -9 2 -4 -12 5 -10 9 -25 9 -31 0 -7 3 -13 6 -13 4 0 12 -9 19 -21 8 -12
9 -18 3 -14 -6 3 -11 2 -11 -2 0 -19 -38 -11 -43 9 -3 11 -10 17 -15 14 -11
-7 -52 22 -52 37 0 8 3 7 9 -2 5 -7 14 -10 20 -7 6 4 11 0 12 -11 0 -14 2 -13
10 5 5 13 13 20 19 17 5 -3 10 -2 10 4 0 17 -18 22 -24 6 -3 -8 -11 -14 -18
-13 -18 4 -28 31 -14 40 6 4 7 11 2 15 -4 4 -13 0 -20 -9 -7 -10 -16 -15 -20
-11 -4 4 -4 0 0 -10 3 -10 1 -17 -5 -17 -6 0 -11 -7 -11 -16 0 -8 4 -13 8 -10
4 2 8 -5 9 -17 0 -12 3 -29 7 -38 5 -10 2 -16 -9 -16 -9 0 -15 9 -15 21 0 12
-9 27 -20 34 -11 7 -20 20 -19 30 0 13 2 12 9 -5 5 -13 15 -23 21 -23 7 0 8 4
2 13 -5 6 -8 22 -7 34 1 13 -3 20 -9 16 -6 -4 -8 0 -4 10 5 14 3 15 -12 5 -11
-7 -17 -18 -13 -27 5 -13 3 -14 -9 -4 -8 7 -20 8 -28 4 -9 -6 -10 -11 -2 -15
6 -4 11 -1 11 6 0 17 20 -11 20 -29 0 -15 -29 -10 -40 6 -5 9 -16 11 -31 6
-36 -11 -16 4 91 70 52 32 104 64 115 71 27 17 44 18 20 1z m405 3 c0 -5 -2
-10 -4 -10 -3 0 -8 5 -11 10 -3 6 -1 10 4 10 6 0 11 -4 11 -10z m1300 6 c0 -3
-4 -8 -10 -11 -5 -3 -10 -1 -10 4 0 6 5 11 10 11 6 0 10 -2 10 -4z m-740 -26
c0 -11 -7 -20 -15 -20 -13 0 -13 3 -3 20 7 11 14 20 15 20 2 0 3 -9 3 -20z
m552 -2 c-7 -7 -12 -8 -12 -2 0 6 3 14 7 17 3 4 9 5 12 2 2 -3 -1 -11 -7 -17z
m1992 7 c-5 -11 -10 -13 -19 -5 -6 5 -16 6 -20 2 -5 -4 -5 -1 -1 6 11 18 47
16 40 -3z m-2904 -21 c0 -2 -9 0 -20 6 -11 6 -20 13 -20 16 0 2 9 0 20 -6 11
-6 20 -13 20 -16z m-118 -59 l-4 -61 -81 -51 c-45 -28 -129 -76 -187 -108 -58
-31 -111 -64 -117 -73 -8 -9 -13 -45 -13 -88 0 -48 4 -73 13 -77 13 -5 111 48
275 150 57 36 107 62 110 59 3 -4 5 -138 4 -299 l-2 -292 -37 -26 c-21 -14
-76 -48 -123 -74 -177 -100 -226 -129 -277 -161 -29 -19 -57 -34 -63 -34 -6 0
-10 27 -10 63 l0 64 158 93 c86 51 176 104 199 119 l43 26 0 163 c0 89 -4 162
-9 162 -10 0 -289 -161 -348 -201 l-41 -29 3 223 c2 122 4 227 4 233 1 7 11
14 24 18 13 3 41 17 63 32 21 15 83 51 137 81 54 30 137 79 184 109 48 30 90
51 93 47 3 -5 4 -35 2 -68z m42 67 c2 -4 1 -14 -3 -21 -6 -9 -10 -7 -14 8 -5
20 7 29 17 13z m166 4 c0 -3 -4 -8 -10 -11 -5 -3 -10 -1 -10 4 0 6 5 11 10 11
6 0 10 -2 10 -4z m888 -61 l2 -65 -63 -39 c-34 -22 -124 -75 -199 -118 l-138
-78 0 -317 c0 -264 2 -318 14 -318 12 0 86 42 219 123 l47 29 0 164 c0 90 -3
164 -8 164 -4 0 -31 -16 -60 -35 -32 -22 -52 -31 -53 -23 -1 7 -3 38 -4 69
l-3 56 46 22 c26 13 80 43 120 68 40 25 74 44 75 42 1 -2 1 -137 -1 -299 l-4
-295 -151 -89 c-84 -49 -190 -113 -237 -142 -47 -29 -93 -56 -103 -60 -18 -6
-18 14 -15 451 l4 457 44 22 c46 23 306 182 395 241 28 19 55 34 61 34 6 1 11
-25 12 -64z m233 38 c-12 -20 -14 -14 -5 12 4 9 9 14 11 11 3 -2 0 -13 -6 -23z
m204 17 c-3 -5 -16 -10 -28 -9 -20 1 -20 2 3 9 14 4 26 8 28 9 2 1 0 -3 -3 -9z
m647 -67 c5 -257 -5 -829 -14 -841 -7 -7 -25 -20 -42 -29 -32 -16 -397 -234
-428 -256 -9 -6 -20 -9 -23 -5 -8 8 -8 896 0 908 3 5 38 27 78 48 65 35 193
112 352 212 33 21 63 39 68 39 4 1 8 -34 9 -76z m1037 73 c-2 -2 -15 -9 -29
-16 -23 -12 -24 -12 -11 3 7 10 20 17 29 17 8 0 13 -2 11 -4z m61 -454 l0
-457 -52 -32 c-29 -17 -54 -31 -54 -30 -1 1 -4 67 -8 147 -4 79 -9 146 -11
149 -3 2 -13 -3 -22 -11 -10 -9 -74 -46 -142 -84 l-123 -68 3 -152 4 -153 -54
-31 c-39 -22 -56 -27 -62 -19 -8 13 -10 723 -2 835 l5 72 57 25 c31 15 144 80
251 146 107 66 198 120 203 120 4 1 7 -205 7 -457z m-2921 419 c-3 -6 -10 -7
-18 -2 -7 5 -10 14 -6 21 9 14 29 -2 24 -19z m32 6 c-10 -9 -11 -8 -5 6 3 10
9 15 12 12 3 -3 0 -11 -7 -18z m614 13 c-3 -5 -10 -10 -16 -10 -5 0 -9 5 -9
10 0 6 7 10 16 10 8 0 12 -4 9 -10z m200 -40 c3 -5 2 -10 -4 -10 -5 0 -12 6
-15 13 -3 6 -3 1 0 -13 4 -14 11 -28 16 -31 5 -3 10 -17 12 -30 1 -14 6 -31
11 -39 8 -13 7 -13 -9 -1 -9 8 -15 20 -12 28 8 19 -23 1 -47 -27 -10 -12 -25
-19 -33 -16 -8 3 -14 1 -14 -5 0 -6 -5 -7 -10 -4 -6 4 -7 12 -4 18 5 8 3 8 -7
0 -10 -10 -10 -16 -1 -25 19 -19 14 -33 -6 -15 -21 19 -42 22 -42 6 0 -5 5 -7
11 -3 7 4 19 -3 29 -16 16 -21 18 -21 34 -5 16 16 17 16 11 -8 -5 -18 -2 -28
12 -36 13 -8 15 -13 6 -19 -6 -4 -13 -32 -16 -62 l-3 -55 -2 66 c-2 72 -7 80
-74 114 l-38 19 43 27 c60 37 66 47 68 116 l2 62 38 -19 c21 -11 40 -24 44
-30z m1792 34 c0 -7 -6 -10 -14 -7 -7 3 -13 8 -13 12 0 4 6 8 13 8 8 0 14 -6
14 -13z m-2897 -20 c0 -2 -9 0 -20 6 -11 6 -20 13 -20 16 0 2 9 0 20 -6 11 -6
20 -13 20 -16z m1270 22 c0 -3 -4 -8 -10 -11 -5 -3 -10 -1 -10 4 0 6 5 11 10
11 6 0 10 -2 10 -4z m-1790 -15 c0 -6 -4 -12 -8 -15 -5 -3 -9 1 -9 9 0 8 4 15
9 15 4 0 8 -4 8 -9z m730 0 c0 -5 -7 -11 -14 -14 -10 -4 -13 -1 -9 9 6 15 23
19 23 5z m980 -23 c0 -5 -11 -1 -25 8 -14 9 -25 18 -25 20 0 2 11 -2 25 -8 14
-6 25 -15 25 -20z m530 28 c0 -3 -4 -8 -10 -11 -5 -3 -10 -1 -10 4 0 6 5 11
10 11 6 0 10 -2 10 -4z m-1990 -12 c0 -8 -19 -13 -24 -6 -3 5 1 9 9 9 8 0 15
-2 15 -3z m2387 -41 c-3 -10 -5 -2 -5 17 0 19 2 27 5 18 2 -10 2 -26 0 -35z
m627 -2 c-2 -2 -10 2 -19 9 -8 7 -15 9 -15 4 0 -11 -20 18 -20 29 0 5 13 -2
29 -15 15 -13 27 -25 25 -27z m41 40 c-3 -5 5 -17 17 -25 17 -12 19 -19 10
-28 -9 -9 -13 -7 -18 5 -3 9 -9 15 -13 12 -4 -2 -6 6 -5 18 3 27 3 27 10 27 3
0 3 -4 -1 -9z m-3026 -4 c-2 -1 -13 -9 -24 -17 -19 -14 -19 -14 -6 3 7 9 18
17 24 17 6 0 8 -1 6 -3z m341 -7 c0 -5 -2 -10 -4 -10 -3 0 -8 5 -11 10 -3 6
-1 10 4 10 6 0 11 -4 11 -10z m327 -9 c2 -22 -23 -36 -33 -19 -4 6 -3 8 3 5 6
-4 13 2 16 13 7 25 12 26 14 1z m798 1 c-3 -3 -11 0 -18 7 -9 10 -8 11 6 5 10
-3 15 -9 12 -12z m1775 -2 c0 -5 -9 -6 -21 -3 -11 3 -31 0 -45 -7 -13 -8 -27
-10 -31 -7 -3 4 1 7 9 7 9 0 21 6 27 14 11 13 61 10 61 -4z m-2950 0 c8 -5 11
-10 5 -10 -5 0 -17 5 -25 10 -8 5 -10 10 -5 10 6 0 17 -5 25 -10z m203 -3 c4
3 7 -1 7 -10 0 -20 -26 -12 -34 10 -5 12 -4 13 7 5 8 -7 17 -9 20 -5z m371 -7
c-10 -4 -23 -5 -28 -2 -5 3 -1 9 10 12 10 4 23 5 28 2 5 -3 1 -9 -10 -12z
m-474 -12 c0 -6 -6 -5 -15 2 -8 7 -15 14 -15 16 0 2 7 1 15 -2 8 -4 15 -11 15
-16z m42 10 c-8 -8 -9 -15 -1 -25 13 -15 1 -17 -20 -4 -12 8 -12 12 -2 25 8 9
18 16 24 16 7 0 7 -4 -1 -12z m1008 -38 c-8 -5 -21 -5 -29 -1 -9 5 -21 6 -28
4 -6 -2 -14 1 -18 6 -4 7 0 8 11 4 14 -5 15 -3 5 16 l-12 22 42 -21 c30 -16
38 -24 29 -30z m1115 40 c3 -6 -1 -7 -9 -4 -18 7 -21 14 -7 14 6 0 13 -4 16
-10z m530 0 c3 -5 1 -10 -4 -10 -6 0 -11 5 -11 10 0 6 2 10 4 10 3 0 8 -4 11
-10z m-2750 -20 c3 -6 -1 -7 -9 -4 -18 7 -21 14 -7 14 6 0 13 -4 16 -10z
m2775 -5 c0 -9 -9 -15 -25 -15 -31 0 -33 17 -2 23 12 2 23 5 25 6 1 0 2 -6 2
-14z m90 11 c0 -2 -8 -10 -17 -17 -16 -13 -17 -12 -4 4 13 16 21 21 21 13z
m-2528 -38 c-15 -15 -24 -6 -16 16 5 12 10 14 17 7 8 -8 8 -14 -1 -23z m113 6
c-19 -19 -24 -18 -18 5 3 12 11 17 19 14 11 -4 11 -7 -1 -19z m1225 22 c0 -2
-7 -7 -16 -10 -8 -3 -12 -2 -9 4 6 10 25 14 25 6z m-2260 -23 c0 -3 -7 -3 -15
1 -8 3 -15 0 -15 -6 0 -6 -3 -9 -6 -5 -11 10 6 26 21 20 8 -3 15 -7 15 -10z
m560 7 c0 -5 -5 -10 -11 -10 -5 0 -7 5 -4 10 3 6 8 10 11 10 2 0 4 -4 4 -10z
m575 -25 c-1 -29 -6 -39 -34 -56 -18 -11 -29 -14 -25 -8 6 11 9 23 13 68 1 11
4 11 17 1 8 -8 14 -9 13 -4 -3 17 1 34 9 34 4 0 7 -16 7 -35z m1730 -18 c6 -7
17 -13 25 -15 8 -2 20 -8 25 -14 6 -6 1 -6 -12 1 -13 6 -23 9 -23 5 0 -3 -14
6 -31 20 -35 30 -54 34 -44 9 4 -12 3 -14 -3 -8 -5 6 -13 20 -17 33 l-7 23 39
-22 c21 -11 43 -26 48 -32z m545 43 c0 -5 -5 -10 -11 -10 -5 0 -7 5 -4 10 3 6
8 10 11 10 2 0 4 -4 4 -10z m-2456 -16 c3 -8 2 -12 -4 -9 -6 3 -10 10 -10 16
0 14 7 11 14 -7z m796 -7 c0 -2 -8 -3 -18 -4 -10 -1 -19 5 -19 12 0 10 5 11
19 4 10 -5 18 -11 18 -12z m-1095 3 c3 -6 -1 -7 -9 -4 -18 7 -21 14 -7 14 6 0
13 -4 16 -10z m165 1 c0 -6 -4 -13 -10 -16 -5 -3 -10 1 -10 9 0 9 5 16 10 16
6 0 10 -4 10 -9z m830 -1 c0 -5 -2 -10 -4 -10 -3 0 -8 5 -11 10 -3 6 -1 10 4
10 6 0 11 -4 11 -10z m584 -15 c3 -10 0 -12 -11 -8 -10 4 -14 2 -10 -4 4 -6
-1 -17 -11 -24 -15 -13 -16 -12 -3 4 12 15 11 17 -5 17 -18 1 -18 1 -1 11 9 6
15 14 12 20 -3 5 1 6 9 3 8 -3 17 -12 20 -19z m56 20 c0 -2 -10 -9 -22 -15
-22 -11 -22 -10 -4 4 21 17 26 19 26 11z m1050 -27 c0 -5 -7 -3 -15 6 -8 8
-15 18 -15 22 0 3 7 1 15 -6 8 -7 15 -17 15 -22z m25 22 c3 -5 2 -10 -4 -10
-5 0 -13 5 -16 10 -3 6 -2 10 4 10 5 0 13 -4 16 -10z m-2601 -12 c-5 -8 -1 -9
12 -4 14 5 16 4 7 -5 -9 -9 -17 -8 -34 5 l-23 16 22 0 c15 0 21 -4 16 -12z
m300 -28 c-6 -5 -24 21 -24 34 0 6 6 1 14 -10 8 -10 12 -21 10 -24z m633 34
c-3 -3 -12 -4 -19 -1 -8 3 -5 6 6 6 11 1 17 -2 13 -5z m-1237 -29 c0 -7 -7
-16 -16 -19 -14 -5 -15 -4 -5 8 7 8 9 21 5 27 -4 8 -3 9 4 5 7 -4 12 -13 12
-21z m235 15 c3 -6 -1 -7 -9 -4 -18 7 -21 14 -7 14 6 0 13 -4 16 -10z m1285 6
c0 -11 -19 -15 -25 -6 -3 5 1 10 9 10 9 0 16 -2 16 -4z m-2285 -47 c39 -22 91
-52 118 -65 35 -18 47 -30 46 -47 l0 -22 -9 22 c-10 24 -58 53 -77 46 -6 -2
-17 5 -23 16 -6 12 -15 21 -20 21 -5 0 -26 11 -46 25 -30 21 -40 23 -52 13
-13 -11 -15 -10 -9 4 3 9 1 19 -6 22 -7 2 -7 5 -2 5 6 1 42 -17 80 -40z m1340
31 c3 -5 1 -10 -4 -10 -6 0 -11 5 -11 10 0 6 2 10 4 10 3 0 8 -4 11 -10z m669
-7 c7 -18 -19 -16 -34 1 -9 12 -8 15 9 13 11 -1 23 -7 25 -14z m324 10 c-21
-5 -24 -29 -5 -36 8 -4 9 -6 0 -6 -16 -1 -44 29 -38 40 4 5 18 8 33 8 17 -1
21 -3 10 -6z m86 -14 c-8 -13 -21 -11 -27 5 -4 10 0 12 14 9 10 -3 16 -9 13
-14z m-2374 -5 c0 -17 -10 -17 -33 0 -16 12 -15 14 8 14 15 0 25 -6 25 -14z
m60 5 c0 -5 -11 -8 -24 -7 -29 3 -27 13 3 15 12 1 21 -2 21 -8z m719 -12 c0
-8 -2 -8 -6 1 -4 10 -8 10 -19 1 -9 -7 -14 -8 -14 -1 0 12 21 22 33 15 4 -2 7
-10 6 -16z m241 -9 c0 -14 -16 -9 -36 13 -19 21 -19 21 9 8 15 -7 27 -16 27
-21z m73 26 c11 -11 -3 -24 -18 -18 -8 4 -12 10 -9 15 6 11 18 12 27 3z m2487
2 c0 -2 -7 -7 -16 -10 -8 -3 -12 -2 -9 4 6 10 25 14 25 6z m-2700 -23 c0 -6
-9 -15 -20 -18 -11 -3 -20 -13 -20 -21 0 -9 -5 -12 -12 -8 -8 5 -4 13 11 26
21 16 16 24 -11 19 -5 0 -8 3 -8 9 0 5 13 8 30 7 16 -1 30 -7 30 -14z m355 7
c3 -5 1 -10 -4 -10 -6 0 -11 5 -11 10 0 6 2 10 4 10 3 0 8 -4 11 -10z m693
-26 c7 -14 17 -22 22 -19 6 3 10 1 10 -4 0 -19 -28 -12 -44 11 -18 25 -20 38
-8 38 5 0 14 -12 20 -26z m72 22 c0 -3 -4 -8 -10 -11 -5 -3 -10 -1 -10 4 0 6
5 11 10 11 6 0 10 -2 10 -4z m275 -54 c-2 -2 -22 7 -46 21 -32 20 -37 26 -23
29 17 3 77 -41 69 -50z m-2075 38 c0 -5 -4 -10 -10 -10 -5 0 -10 5 -10 10 0 6
5 10 10 10 6 0 10 -4 10 -10z m876 -22 c4 -7 3 -8 -4 -4 -7 4 -12 2 -12 -3 0
-6 -7 -11 -15 -11 -8 0 -15 -5 -15 -12 0 -6 -2 -9 -5 -6 -10 10 7 38 24 39 14
1 14 2 -1 6 -10 2 -18 9 -18 14 0 12 36 -6 46 -23z m67 18 c4 -10 1 -13 -8 -9
-8 3 -12 9 -9 14 7 12 11 11 17 -5z m1724 -68 c-2 -18 -4 -6 -4 27 0 33 2 48
4 33 2 -15 2 -42 0 -60z m343 67 c10 6 7 -21 -3 -31 -4 -4 -15 0 -25 9 -10 10
-22 14 -27 10 -4 -5 -5 -3 -1 4 4 7 13 10 21 6 9 -3 15 1 16 8 0 11 2 11 6 1
2 -6 8 -10 13 -7z m-3155 -5 c8 -13 -5 -13 -25 0 -13 8 -13 10 2 10 9 0 20 -4
23 -10z m1134 -4 c10 -12 8 -13 -8 -9 -12 3 -18 9 -15 14 7 12 10 11 23 -5z
m839 -6 c7 -11 8 -20 2 -20 -5 0 -14 9 -20 20 -6 11 -7 20 -3 20 5 0 14 -9 21
-20z m1087 10 c3 -5 1 -10 -4 -10 -6 0 -11 5 -11 10 0 6 2 10 4 10 3 0 8 -4
11 -10z m335 0 c0 -5 -2 -10 -4 -10 -3 0 -8 5 -11 10 -3 6 -1 10 4 10 6 0 11
-4 11 -10z m-3543 -18 c14 11 15 11 12 -1 -3 -8 -15 -18 -27 -22 -19 -7 -22
-5 -22 19 1 24 2 25 11 9 9 -15 13 -16 26 -5z m223 7 c0 -4 -11 -9 -25 -11
-17 -4 -25 -1 -25 8 0 9 10 13 25 12 14 -1 25 -5 25 -9z m645 1 c-3 -5 -11
-10 -16 -10 -6 0 -7 5 -4 10 3 6 11 10 16 10 6 0 7 -4 4 -10z m126 -7 c13 -16
12 -17 -3 -4 -10 7 -18 15 -18 17 0 8 8 3 21 -13z m1089 2 c7 -9 8 -15 2 -15
-5 0 -12 7 -16 15 -3 8 -4 15 -2 15 2 0 9 -7 16 -15z m184 6 c3 -5 0 -11 -8
-14 -8 -3 -17 1 -20 9 -6 15 19 20 28 5z m1099 -24 c-3 -5 -9 -3 -14 4 -6 11
-11 11 -21 1 -9 -9 -9 -12 2 -12 11 0 11 -3 2 -12 -10 -10 -15 -10 -22 2 -7
10 -5 18 5 26 8 6 11 14 7 18 -4 4 5 2 20 -5 15 -6 25 -16 21 -22z m-3073 16
c0 -1 -9 -7 -20 -13 -15 -8 -20 -8 -20 3 0 7 9 13 20 13 11 0 20 -1 20 -3z
m1491 -20 c27 -16 49 -32 49 -37 0 -5 -7 -3 -15 4 -13 11 -14 10 -9 -3 4 -12
0 -15 -15 -14 -13 1 -17 5 -12 10 12 12 -24 51 -38 42 -6 -3 -11 -1 -11 4 0 6
-4 11 -10 11 -5 0 -7 -8 -4 -17 4 -12 3 -14 -3 -6 -6 8 -13 8 -26 -2 -10 -7
-14 -16 -8 -19 5 -3 12 0 14 6 4 10 8 9 16 -2 6 -8 11 -10 11 -5 0 6 9 11 20
11 18 0 18 -2 3 -18 -12 -13 -20 -15 -34 -7 -11 5 -19 7 -19 3 0 -3 -7 -1 -15
6 -18 15 -49 5 -39 -11 4 -8 3 -9 -5 -5 -6 4 -19 2 -27 -5 -8 -6 -17 -9 -20
-7 -5 6 123 85 140 87 4 1 30 -11 57 -26z m-1693 -2 c3 -8 -1 -12 -9 -9 -7 2
-15 10 -17 17 -3 8 1 12 9 9 7 -2 15 -10 17 -17z m662 -3 c0 -6 -6 -5 -15 2
-8 7 -15 14 -15 16 0 2 7 1 15 -2 8 -4 15 -11 15 -16z m496 -9 c30 -17 54 -35
54 -40 0 -6 -7 -3 -16 5 -8 9 -20 14 -25 11 -5 -4 -9 -1 -9 5 0 7 -7 9 -16 6
-8 -3 -12 -2 -9 4 3 5 -7 16 -22 24 -15 8 -24 15 -19 16 5 0 33 -14 62 -31z
m1074 5 c0 -2 -9 0 -20 6 -11 6 -20 13 -20 16 0 2 9 0 20 -6 11 -6 20 -13 20
-16z m130 21 c0 -2 -9 -9 -20 -15 -12 -6 -20 -7 -20 -1 0 5 8 12 18 14 9 3 18
5 20 6 1 0 2 -1 2 -4z m-2210 -15 c0 -5 -8 -10 -17 -10 -15 0 -16 2 -3 10 19
12 20 12 20 0z m375 0 c3 -6 -1 -7 -9 -4 -18 7 -21 14 -7 14 6 0 13 -4 16 -10z
m1785 0 c0 -5 -2 -10 -4 -10 -3 0 -8 5 -11 10 -3 6 -1 10 4 10 6 0 11 -4 11
-10z m-301 -85 c21 -33 37 -62 35 -64 -5 -6 -34 26 -34 38 0 11 -24 16 -45 11
-5 -2 -25 -4 -44 -5 -30 -2 -32 0 -16 11 12 9 22 10 30 4 6 -5 17 -5 25 0 8 5
18 6 22 4 13 -8 9 10 -7 33 -9 13 -22 20 -30 17 -8 -4 -15 -1 -15 6 0 6 5 8
10 5 6 -3 10 -1 10 6 0 18 13 3 59 -66z m1277 48 c-7 -7 -26 7 -26 19 0 6 6 6
15 -2 9 -7 13 -15 11 -17z m-3394 -37 c-8 -14 -20 27 -14 44 4 11 8 8 12 -10
4 -14 5 -29 2 -34z m78 46 c0 -4 -13 -13 -30 -19 -35 -13 -41 -3 -7 13 28 15
37 16 37 6z m40 -12 c0 -5 -7 -10 -15 -10 -8 0 -15 5 -15 10 0 6 7 10 15 10 8
0 15 -4 15 -10z m23 -15 c-5 -13 -23 -22 -23 -11 0 15 14 35 21 31 4 -3 6 -12
2 -20z m407 15 c0 -5 -8 -10 -17 -10 -15 0 -16 2 -3 10 19 12 20 12 20 0z
m400 -32 c0 -5 -7 -3 -15 6 -8 8 -15 18 -15 22 0 3 7 1 15 -6 8 -7 15 -17 15
-22z m-440 12 c0 -5 -5 -10 -11 -10 -5 0 -7 5 -4 10 3 6 8 10 11 10 2 0 4 -4
4 -10z m287 -12 c-3 -8 -6 -5 -6 6 -1 11 2 17 5 13 3 -3 4 -12 1 -19z m2572
-43 c0 -11 -25 20 -41 50 -5 11 2 7 16 -10 14 -16 25 -34 25 -40z m-2758 32
c-10 -9 -11 -8 -5 6 3 10 9 15 12 12 3 -3 0 -11 -7 -18z m1129 13 c11 -8 8 -9
-12 -4 -18 4 -28 2 -28 -6 0 -6 -5 -8 -11 -4 -8 4 -7 9 2 15 18 11 31 11 49
-1z m1237 -22 c-3 -7 -5 -2 -5 12 0 14 2 19 5 13 2 -7 2 -19 0 -25z m-2803 7
c-4 -8 -11 -12 -16 -9 -6 4 -5 10 3 15 19 12 19 11 13 -6z m306 11 c0 -3 -4
-8 -10 -11 -5 -3 -10 -1 -10 4 0 6 5 11 10 11 6 0 10 -2 10 -4z m190 -2 c0 -8
-19 -13 -24 -6 -3 5 1 9 9 9 8 0 15 -2 15 -3z m1330 -6 c0 -4 -4 -8 -9 -8 -6
0 -12 4 -15 8 -3 5 1 9 9 9 8 0 15 -4 15 -9z m1487 -10 c-3 -8 -6 -5 -6 6 -1
11 2 17 5 13 3 -3 4 -12 1 -19z m-3257 -26 c0 -37 -1 -38 -29 -34 -25 3 -29 1
-25 -15 4 -13 0 -20 -9 -20 -10 0 -14 8 -11 23 2 13 0 26 -6 29 -5 3 -10 1
-10 -6 0 -7 -3 -10 -6 -6 -3 3 -2 13 4 23 6 11 11 13 16 5 4 -6 16 -11 28 -11
18 0 19 2 7 17 -8 9 -9 14 -3 10 7 -4 17 0 24 8 18 22 20 19 20 -23z m210 28
c0 -5 -5 -10 -11 -10 -5 0 -7 5 -4 10 3 6 8 10 11 10 2 0 4 -4 4 -10z m880
-15 c0 -14 -2 -25 -4 -25 -2 0 -6 11 -8 25 -3 14 -1 25 3 25 5 0 9 -11 9 -25z
m-685 5 c-3 -5 -16 -15 -28 -21 -19 -9 -19 -8 3 10 28 23 34 26 25 11z m177
-14 c6 4 5 -2 -1 -15 -8 -14 -8 -21 -1 -21 5 0 10 -7 10 -16 0 -9 -5 -12 -12
-8 -8 5 -9 0 -6 -14 4 -12 2 -25 -3 -28 -5 -3 -9 23 -8 58 0 35 3 57 6 50 2
-6 9 -9 15 -6z m-392 -17 c7 -11 9 -23 6 -27 -3 -3 -6 0 -6 6 0 7 -4 12 -10
12 -12 0 -14 -37 -2 -42 4 -1 2 -14 -5 -28 -12 -23 -13 -20 -13 38 0 63 11 78
30 41z m1528 12 c10 -6 9 -11 -4 -22 -16 -12 -17 -12 -11 3 3 9 1 19 -6 22 -7
2 -7 5 -2 5 6 0 16 -3 23 -8z m47 -1 c3 -6 -1 -7 -9 -4 -18 7 -21 14 -7 14 6
0 13 -4 16 -10z m982 -37 c-3 -10 -5 -2 -5 17 0 19 2 27 5 18 2 -10 2 -26 0
-35z m-1984 3 c-15 -13 -29 -23 -31 -21 -7 6 33 45 46 45 7 0 0 -11 -15 -24z
m547 -12 c0 -2 -10 0 -21 7 -17 9 -23 8 -30 -2 -6 -10 -8 -7 -6 8 1 20 3 21
29 7 15 -8 28 -17 28 -20z m91 19 c13 -16 12 -17 -3 -4 -17 13 -22 21 -14 21
2 0 10 -8 17 -17z m772 -2 c-4 -3 -11 -10 -15 -15 -4 -4 -6 1 -5 12 1 12 6 18
15 15 7 -3 10 -9 5 -12z m1013 -38 c21 -32 46 -71 56 -86 11 -15 18 -32 16
-37 -2 -4 -29 34 -60 86 -63 102 -71 130 -12 37z m-3331 37 c3 -6 -1 -7 -9 -4
-18 7 -21 14 -7 14 6 0 13 -4 16 -10z m1985 1 c0 -14 -29 -21 -36 -9 -4 6 -3
8 4 4 6 -3 13 -2 17 4 8 12 15 13 15 1z m-1869 -38 c-12 -20 -14 -14 -5 12 4
9 9 14 11 11 3 -2 0 -13 -6 -23z m1985 0 c-7 -7 -26 7 -26 19 0 6 6 6 15 -2 9
-7 13 -15 11 -17z m-2071 7 c3 -6 -4 -10 -17 -10 -18 0 -20 2 -8 10 19 12 18
12 25 0z m330 0 c3 -5 1 -10 -4 -10 -6 0 -11 5 -11 10 0 6 2 10 4 10 3 0 8 -4
11 -10z m1895 6 c0 -2 -7 -7 -16 -10 -8 -3 -12 -2 -9 4 6 10 25 14 25 6z m817
-28 c-3 -7 -5 -2 -5 12 0 14 2 19 5 13 2 -7 2 -19 0 -25z m330 10 c-3 -8 -6
-5 -6 6 -1 11 2 17 5 13 3 -3 4 -12 1 -19z m-1900 -19 c1 -19 1 -20 -4 -4 -3
11 -10 24 -17 28 -7 6 -6 7 4 4 8 -2 16 -14 17 -28z m-1472 1 c3 -5 1 -10 -4
-10 -6 0 -11 5 -11 10 0 6 2 10 4 10 3 0 8 -4 11 -10z m344 6 c-2 -2 -15 -9
-29 -15 -24 -11 -24 -11 -6 3 16 13 49 24 35 12z m-369 -26 c0 -4 -7 -11 -16
-14 -8 -3 -12 -2 -9 4 3 6 -1 10 -9 10 -8 0 -17 4 -20 8 -3 5 8 6 25 4 16 -2
29 -8 29 -12z m80 16 c0 -2 -7 -6 -15 -10 -8 -3 -15 -1 -15 4 0 6 7 10 15 10
8 0 15 -2 15 -4z m1800 -6 c0 -5 -5 -10 -11 -10 -5 0 -7 5 -4 10 3 6 8 10 11
10 2 0 4 -4 4 -10z m-1740 -51 c0 -16 -4 -29 -10 -29 -5 0 -7 13 -3 30 5 26 3
30 -13 24 -15 -5 -16 -4 -4 4 20 15 30 5 30 -29z m2765 31 c3 -5 -1 -10 -9
-10 -9 0 -16 5 -16 10 0 6 4 10 9 10 6 0 13 -4 16 -10z m-2880 -24 c0 -21 -3
-23 -20 -14 -30 16 -30 17 -4 27 13 5 24 10 24 10 0 1 0 -10 0 -23z m1430 14
c3 -6 -1 -7 -9 -4 -19 7 -21 -7 -3 -25 10 -11 8 -11 -11 -2 -19 10 -21 15 -11
27 13 16 25 18 34 4z m-1335 -19 c0 -6 -4 -12 -8 -15 -5 -3 -9 1 -9 9 0 8 4
15 9 15 4 0 8 -4 8 -9z m2790 -16 c0 -2 -7 -5 -15 -9 -9 -3 -15 0 -15 9 0 9 6
12 15 9 8 -4 15 -7 15 -9z m-1414 -33 c-4 -3 -12 0 -19 8 -9 10 -9 11 1 6 7
-5 12 -1 13 11 1 17 2 17 6 0 3 -10 2 -21 -1 -25z m-1506 -4 c0 -3 -9 -4 -19
-1 -16 4 -17 8 -8 18 11 12 26 3 27 -17z m1425 14 c-3 -3 -11 0 -18 7 -9 10
-8 11 6 5 10 -3 15 -9 12 -12z m215 10 c0 -5 -12 -14 -27 -21 l-28 -12 25 21
c29 22 30 23 30 12z m-1124 -21 c-10 -10 -26 -21 -38 -24 -23 -7 -19 -1 19 24
36 23 40 23 19 0z m1738 -49 c3 -7 -10 0 -29 15 -19 16 -35 32 -35 36 0 11 57
-34 64 -51z m-2107 11 c-3 -10 -5 -4 -5 12 0 17 2 24 5 18 2 -7 2 -21 0 -30z
m2143 13 c0 -2 -7 -6 -15 -10 -8 -3 -15 -1 -15 4 0 6 7 10 15 10 8 0 15 -2 15
-4z m770 -11 c0 -8 -2 -15 -4 -15 -2 0 -6 7 -10 15 -3 8 -1 15 4 15 6 0 10 -7
10 -15z m-1868 -30 c-4 -35 -15 -44 -28 -23 -4 7 -3 8 4 4 8 -5 12 3 12 23 0
17 4 31 8 31 4 0 6 -16 4 -35z m848 15 c8 -5 11 -10 5 -10 -5 0 -17 5 -25 10
-8 5 -10 10 -5 10 6 0 17 -5 25 -10z m120 -9 c-11 -21 -30 -37 -30 -25 0 8 30
44 37 44 2 0 -1 -9 -7 -19z m-1623 -13 c-3 -8 -6 -5 -6 6 -1 11 2 17 5 13 3
-3 4 -12 1 -19z m1783 -40 c0 -10 -16 5 -40 37 -10 15 -7 14 13 -4 15 -14 27
-29 27 -33z m-411 -49 c-24 -15 -30 -10 -11 9 9 10 19 14 21 9 2 -5 -3 -13
-10 -18z m-39 -13 c0 -3 -4 -8 -10 -11 -5 -3 -10 -1 -10 4 0 6 5 11 10 11 6 0
10 -2 10 -4z m-40 -10 c0 -2 -8 -10 -17 -17 -16 -13 -17 -12 -4 4 13 16 21 21
21 13z m1885 -26 c-3 -5 -1 -10 6 -10 7 0 10 -3 6 -6 -9 -9 -28 6 -22 17 4 5
8 9 11 9 3 0 2 -4 -1 -10z m-2273 -75 c7 -13 1 -10 -16 8 -14 15 -26 33 -26
40 1 13 24 -14 42 -48z m-1061 18 c13 -16 12 -17 -3 -4 -17 13 -22 21 -14 21
2 0 10 -8 17 -17z m-101 -13 c0 -5 -4 -10 -10 -10 -5 0 -10 5 -10 10 0 6 5 10
10 10 6 0 10 -4 10 -10z m957 -32 c-3 -8 -6 -5 -6 6 -1 11 2 17 5 13 3 -3 4
-12 1 -19z m-802 -6 c-3 -3 -11 0 -18 7 -9 10 -8 11 6 5 10 -3 15 -9 12 -12z
m2469 2 c3 -8 2 -12 -4 -9 -6 3 -10 10 -10 16 0 14 7 11 14 -7z m-2839 -42
c-3 -3 -11 0 -18 7 -9 10 -8 11 6 5 10 -3 15 -9 12 -12z m75 -37 c0 -5 -9 1
-20 15 -11 14 -20 30 -20 35 0 6 9 -1 20 -15 11 -14 20 -29 20 -35z m-148 23
c-9 -9 -15 -9 -24 0 -9 9 -7 12 12 12 19 0 21 -3 12 -12z m-34 -29 c26 -17 39
-28 30 -25 -10 3 -18 2 -18 -3 0 -4 -12 -6 -26 -3 -18 3 -22 7 -13 13 7 4 17
5 23 2 5 -3 6 -1 3 5 -4 5 -15 8 -26 5 -12 -3 -20 2 -24 16 -7 27 -6 27 51
-10z"/>
<path d="M3140 3331 c0 -6 5 -13 10 -16 6 -3 10 1 10 9 0 9 -4 16 -10 16 -5 0
-10 -4 -10 -9z"/>
<path d="M3190 3285 c0 -2 10 -10 23 -16 20 -11 21 -11 8 4 -13 16 -31 23 -31
12z"/>
<path d="M3020 3273 c0 -15 22 -32 36 -26 14 5 8 33 -8 33 -5 0 -6 -6 -2 -12
5 -9 2 -9 -9 1 -9 7 -17 9 -17 4z"/>
<path d="M3260 3232 c0 -4 9 -13 20 -19 16 -11 18 -10 14 1 -6 15 -34 30 -34
18z"/>
<path d="M3310 3189 c0 -6 -8 -9 -19 -6 -15 4 -18 -1 -17 -29 2 -63 44 -45 44
19 0 15 -2 27 -4 27 -2 0 -4 -5 -4 -11z m-10 -35 c0 -8 -5 -12 -10 -9 -6 4 -8
11 -5 16 9 14 15 11 15 -7z"/>
<path d="M3320 3129 c0 -5 5 -7 10 -4 6 3 10 8 10 11 0 2 -4 4 -10 4 -5 0 -10
-5 -10 -11z"/>
<path d="M3209 3088 c-5 -9 -5 -48 -1 -43 8 7 13 45 7 45 -3 0 -6 -1 -6 -2z"/>
<path d="M1926 3226 c3 -8 -4 -19 -16 -26 -16 -8 -19 -15 -11 -23 11 -11 45 9
36 23 -3 4 2 11 11 14 18 7 10 26 -11 26 -8 0 -12 -6 -9 -14z"/>
<path d="M1942 3181 c-8 -5 -12 -17 -10 -27 2 -15 5 -13 15 9 14 30 14 30 -5
18z"/>
<path d="M1972 3166 c-19 -23 -19 -36 0 -36 5 0 6 5 3 10 -4 6 5 10 19 10 28
0 33 11 13 29 -11 8 -19 5 -35 -13z"/>
<path d="M1829 3175 c-1 -3 -2 -10 -3 -15 0 -6 -8 -15 -16 -20 -12 -8 -11 -10
8 -10 12 0 22 3 23 8 0 4 2 15 4 25 3 14 -13 26 -16 12z"/>
<path d="M1703 3107 c-23 -17 -29 -27 -22 -38 7 -11 9 -11 9 4 0 19 15 23 25
7 5 -8 11 -8 20 0 7 5 21 9 31 8 27 -4 30 14 4 24 -11 4 -19 4 -16 0 3 -5 -1
-9 -8 -9 -8 0 -12 6 -9 14 7 18 2 17 -34 -10z"/>
<path d="M1993 3124 c7 -13 -17 -27 -27 -16 -11 10 -46 9 -46 -2 0 -6 9 -17
20 -24 11 -7 20 -8 20 -3 0 5 -5 11 -12 13 -9 3 -9 6 0 12 8 4 16 -2 22 -18 5
-14 14 -26 19 -26 6 0 8 6 5 14 -4 9 2 16 16 18 l22 3 -23 20 c-12 11 -19 15
-16 9z"/>
<path d="M1845 3100 c-3 -5 -2 -10 4 -10 5 0 13 5 16 10 3 6 2 10 -4 10 -5 0
-13 -4 -16 -10z"/>
<path d="M1880 3102 c0 -5 7 -13 16 -16 10 -4 14 -1 12 6 -5 15 -28 23 -28 10z"/>
<path d="M2020 3075 c0 -15 18 -40 24 -34 3 3 -1 14 -9 25 -8 10 -14 15 -15 9z"/>
<path d="M1750 3061 c0 -6 4 -13 10 -16 6 -3 7 1 4 9 -7 18 -14 21 -14 7z"/>
<path d="M1610 3037 c0 -15 4 -27 10 -27 5 0 9 9 7 20 -5 31 -17 36 -17 7z"/>
<path d="M1611 2984 c0 -11 3 -14 6 -6 3 7 2 16 -1 19 -3 4 -6 -2 -5 -13z"/>
<path d="M1528 2973 c7 -3 16 -2 19 1 4 3 -2 6 -13 5 -11 0 -14 -3 -6 -6z"/>
<path d="M1553 2963 c-7 -3 -13 -9 -13 -14 0 -6 5 -7 11 -3 6 3 15 0 20 -7 5
-8 9 -9 9 -4 0 18 -15 32 -27 28z"/>
<path d="M1602 2940 c0 -14 2 -19 5 -12 2 6 2 18 0 25 -3 6 -5 1 -5 -13z"/>
<path d="M1450 2940 c-9 -6 -10 -10 -3 -10 6 0 15 5 18 10 8 12 4 12 -15 0z"/>
<path d="M1620 2931 c0 -13 6 -19 19 -18 15 1 17 4 7 19 -14 24 -26 23 -26 -1z"/>
<path d="M1327 2876 c-4 -10 -1 -13 8 -9 8 3 12 9 9 14 -7 12 -11 11 -17 -5z"/>
<path d="M1375 2860 c4 -6 11 -8 16 -5 14 9 11 15 -7 15 -8 0 -12 -5 -9 -10z"/>
<path d="M1342 2851 c-11 -6 -9 -9 6 -13 15 -4 19 -2 15 8 -6 16 -4 16 -21 5z"/>
<path d="M1296 2842 c-3 -5 1 -9 9 -9 8 0 15 4 15 9 0 4 -4 8 -9 8 -6 0 -12
-4 -15 -8z"/>
<path d="M1447 2839 c-9 -6 -23 -7 -30 -3 -6 4 -4 -2 6 -13 9 -11 17 -25 17
-31 0 -6 7 -9 15 -6 10 4 15 0 15 -12 1 -18 1 -18 11 0 8 12 8 20 1 25 -5 3
-12 16 -13 28 -3 18 -7 20 -22 12z"/>
<path d="M1480 2739 c0 -5 5 -7 10 -4 6 3 10 8 10 11 0 2 -4 4 -10 4 -5 0 -10
-5 -10 -11z"/>
<path d="M3600 3059 c0 -6 9 -8 23 -4 16 4 18 4 8 -3 -11 -8 -10 -12 7 -21 27
-14 32 -14 32 4 0 16 -30 35 -54 35 -9 0 -16 -5 -16 -11z m60 -19 c0 -5 -2
-10 -4 -10 -3 0 -8 5 -11 10 -3 6 -1 10 4 10 6 0 11 -4 11 -10z"/>
<path d="M3734 2995 c8 -8 21 -15 28 -15 8 1 6 6 -6 15 -26 20 -42 19 -22 0z"/>
<path d="M3724 2959 c-10 -17 18 -40 36 -29 12 7 12 12 2 22 -9 9 -12 9 -12
-1 0 -7 -5 -9 -10 -6 -6 4 -8 11 -5 16 4 5 4 9 1 9 -3 0 -8 -5 -12 -11z"/>
<path d="M3805 2960 c-3 -5 -1 -10 4 -10 6 0 11 5 11 10 0 6 -2 10 -4 10 -3 0
-8 -4 -11 -10z"/>
<path d="M3516 3055 c4 -8 10 -12 15 -9 11 6 2 24 -11 24 -5 0 -7 -7 -4 -15z"/>
<path d="M1826 2832 c-2 -4 -1 -14 4 -22 7 -11 9 -9 7 8 -1 24 -3 26 -11 14z"/>
<path d="M2179 2778 c-8 -28 -3 -49 13 -54 10 -3 15 -10 12 -16 -5 -7 -2 -8 6
-3 10 6 10 11 -4 20 -9 7 -14 19 -10 28 3 8 1 18 -5 22 -6 3 -11 5 -12 3z"/>
<path d="M2132 2654 c10 -10 20 -15 24 -12 3 4 -5 12 -18 18 -22 12 -22 12 -6
-6z"/>
<path d="M1160 2766 c0 -7 9 -16 21 -19 20 -5 20 -5 3 14 -20 23 -24 23 -24 5z"/>
<path d="M1080 2712 c0 -18 5 -32 10 -32 6 0 8 11 4 28 -10 39 -14 40 -14 4z"/>
<path d="M1056 2676 c3 -9 1 -16 -5 -16 -6 0 -11 4 -11 9 0 6 -12 6 -30 -1
-26 -9 -29 -12 -18 -27 7 -9 1 -6 -13 7 -28 24 -69 22 -49 -3 8 -10 6 -21 -8
-44 -10 -17 -22 -28 -25 -24 -4 3 -7 0 -7 -8 0 -17 64 -44 80 -34 15 9 13 38
-2 29 -10 -5 -10 -4 -2 5 6 7 21 13 33 14 13 1 20 6 17 14 -5 13 9 26 32 29 6
1 12 -2 12 -7 0 -5 4 -9 8 -9 11 0 2 69 -9 76 -5 3 -6 -2 -3 -10z m-91 -36 c3
-5 2 -10 -4 -10 -5 0 -13 5 -16 10 -3 6 -2 10 4 10 5 0 13 -4 16 -10z"/>
<path d="M1114 2629 c-3 -6 1 -18 10 -27 10 -11 16 -12 16 -4 0 7 -5 12 -11
12 -6 0 -9 7 -5 15 6 17 0 20 -10 4z"/>
<path d="M895 2420 c3 -5 8 -10 11 -10 2 0 4 5 4 10 0 6 -5 10 -11 10 -5 0 -7
-4 -4 -10z"/>
<path d="M4177 2714 c5 -13 63 -15 63 -2 0 5 -4 6 -10 3 -5 -3 -10 -3 -10 2 0
4 -11 8 -24 8 -13 0 -22 -5 -19 -11z"/>
<path d="M4367 2559 c7 -7 15 -10 18 -7 3 3 -2 9 -12 12 -14 6 -15 5 -6 -5z"/>
<path d="M2018 2543 c7 -3 16 -2 19 1 4 3 -2 6 -13 5 -11 0 -14 -3 -6 -6z"/>
<path d="M2120 2536 c0 -2 7 -7 16 -10 8 -3 12 -2 9 4 -6 10 -25 14 -25 6z"/>
<path d="M2075 2520 c-8 -13 -1 -24 14 -19 6 3 7 10 2 18 -6 10 -10 10 -16 1z"/>
<path d="M2052 2481 c4 -13 18 -16 19 -4 0 4 -5 9 -11 12 -7 2 -11 -2 -8 -8z"/>
<path d="M2040 2441 c0 -20 23 -23 38 -5 16 17 16 17 0 5 -12 -9 -18 -10 -18
-2 0 6 -4 11 -10 11 -5 0 -10 -4 -10 -9z"/>
<path d="M2020 2431 c0 -5 5 -13 10 -16 6 -3 10 -2 10 4 0 5 -4 13 -10 16 -5
3 -10 2 -10 -4z"/>
<path d="M670 2495 c0 -8 5 -15 10 -15 6 0 10 7 10 15 0 8 -4 15 -10 15 -5 0
-10 -7 -10 -15z"/>
<path d="M760 2410 c0 -5 5 -10 11 -10 5 0 7 5 4 10 -3 6 -8 10 -11 10 -2 0
-4 -4 -4 -10z"/>
<path d="M3168 2263 l-128 -77 -2 -110 c-2 -134 3 -520 8 -524 3 -4 191 98
241 132 l32 21 1 317 c0 248 -3 318 -13 318 -6 -1 -69 -35 -139 -77z m122 30
c0 -9 -3 -13 -6 -10 -4 3 -16 2 -28 -4 -17 -8 -16 -6 4 10 30 25 30 25 30 4z
m-174 -102 c-4 -5 -3 -11 1 -14 5 -2 2 -2 -6 0 -7 2 -20 -2 -28 -8 -7 -7 -16
-9 -19 -6 -3 3 7 12 23 21 33 18 36 19 29 7z m-1 -41 c3 -5 -1 -10 -9 -10 -9
0 -16 5 -16 10 0 6 4 10 9 10 6 0 13 -4 16 -10z m175 -70 c0 -5 -8 -10 -17
-10 -15 0 -16 2 -3 10 19 12 20 12 20 0z m-41 -14 c-2 -3 -29 -7 -59 -10 l-55
-5 55 13 c51 12 70 12 59 2z m-169 -20 c0 -3 -4 -8 -10 -11 -5 -3 -10 -1 -10
4 0 6 5 11 10 11 6 0 10 -2 10 -4z m207 -88 c-3 -7 -5 -2 -5 12 0 14 2 19 5
13 2 -7 2 -19 0 -25z m-220 -10 c-3 -7 -5 -2 -5 12 0 14 2 19 5 13 2 -7 2 -19
0 -25z m218 -196 c-3 -3 -11 0 -18 7 -9 10 -8 11 6 5 10 -3 15 -9 12 -12z
m-206 -105 c12 -15 12 -17 -3 -11 -9 3 -16 13 -16 22 0 8 1 13 3 11 1 -2 9
-12 16 -22z"/>
<path d="M4251 2258 l-134 -81 7 -75 c3 -41 6 -113 6 -159 0 -93 4 -97 58 -57
31 24 141 89 199 118 22 11 23 15 23 174 0 123 -3 162 -12 161 -7 0 -73 -37
-147 -81z m85 7 c-14 -13 -26 -27 -26 -30 0 -4 18 -28 40 -54 34 -40 40 -55
38 -85 -2 -42 -4 -43 -38 -15 -23 18 -23 19 -2 9 27 -13 29 1 5 26 -17 17 -17
18 0 11 9 -3 17 -3 17 1 0 11 -44 70 -70 94 l-22 20 39 24 c49 30 52 30 19 -1z
m-136 -80 c-7 -9 -15 -13 -19 -10 -3 3 1 10 9 15 21 14 24 12 10 -5z m4 -54
c4 -5 -3 -7 -14 -4 -23 6 -26 13 -6 13 8 0 17 -4 20 -9z m-3 -28 c13 -16 12
-17 -3 -4 -17 13 -22 21 -14 21 2 0 10 -8 17 -17z m-44 -25 c-3 -7 -5 -2 -5
12 0 14 2 19 5 13 2 -7 2 -19 0 -25z m148 -6 c-3 -3 -11 0 -18 7 -9 10 -8 11
6 5 10 -3 15 -9 12 -12z m-140 -32 c3 -5 1 -10 -4 -10 -6 0 -11 5 -11 10 0 6
2 10 4 10 3 0 8 -4 11 -10z m35 -111 c0 -5 -5 -9 -11 -9 -5 0 -8 4 -5 9 7 11
-18 33 -27 24 -4 -3 -7 5 -7 18 l1 24 24 -28 c14 -15 25 -32 25 -38z m0 51 c0
-5 8 -7 18 -4 13 5 14 4 3 -4 -15 -11 -41 -5 -41 9 0 5 5 9 10 9 6 0 10 -4 10
-10z"/>
<path d="M2381 2491 c0 -21 5 -39 17 -48 16 -14 16 -14 -2 -9 -15 5 -17 4 -7
-8 10 -12 8 -16 -8 -21 -21 -6 -26 -16 -15 -28 12 -11 44 13 44 33 0 11 7 20
15 20 12 0 11 5 -3 29 -9 16 -20 27 -24 25 -3 -2 -9 6 -11 18 -3 16 -5 13 -6
-11z"/>
<path d="M1955 2380 c3 -5 11 -10 16 -10 6 0 7 5 4 10 -3 6 -11 10 -16 10 -6
0 -7 -4 -4 -10z"/>
<path d="M2507 4333 c-13 -12 -7 -25 9 -19 10 4 14 2 11 -6 -2 -7 -11 -12 -18
-10 -11 3 -12 1 -1 -9 6 -7 12 -19 12 -26 0 -6 -11 -1 -25 12 -13 14 -30 25
-37 25 -7 -1 -1 -8 15 -16 15 -8 27 -20 27 -26 0 -7 -5 -6 -15 2 -13 11 -14
10 -9 -5 7 -16 5 -16 -22 1 -17 12 -25 14 -20 5 7 -10 3 -12 -15 -6 -22 6 -22
5 6 -20 19 -17 26 -28 18 -31 -12 -5 -12 -7 18 -65 8 -16 8 -24 -1 -29 -9 -6
-9 -9 -1 -15 9 -5 9 -10 1 -20 -7 -9 -6 -16 7 -26 16 -13 17 -12 4 4 -10 12
-10 17 -2 17 8 0 10 8 6 20 -3 11 -2 20 4 20 5 0 13 -9 16 -21 4 -11 9 -18 13
-15 3 4 -4 20 -16 36 -25 34 -30 66 -5 35 15 -19 15 -19 9 9 -4 16 -19 44 -33
62 -14 19 -20 34 -14 34 6 0 14 -7 18 -16 4 -12 8 -13 14 -3 5 8 10 -1 15 -26
l7 -39 11 45 c7 25 23 61 36 80 13 19 17 28 8 21 -14 -11 -17 -10 -23 7 -6 21
-16 26 -28 14z"/>
<path d="M2303 4309 c19 -14 31 -18 43 -11 14 8 11 11 -16 21 -48 16 -56 14
-27 -10z"/>
<path d="M2250 4295 c-14 -8 -23 -15 -20 -15 3 -1 30 -3 60 -4 40 -3 47 -2 25
4 -16 4 -24 8 -17 9 16 1 6 21 -11 21 -7 -1 -23 -7 -37 -15z"/>
<path d="M2666 4272 c-4 -7 3 -9 20 -6 14 3 23 1 20 -5 -3 -5 10 -9 29 -8 35
1 51 17 16 17 -10 0 -32 3 -49 6 -16 3 -32 1 -36 -4z"/>
<path d="M2350 4246 c0 -2 9 -6 20 -9 11 -3 18 -1 14 4 -5 9 -34 13 -34 5z"/>
<path d="M3740 4243 c-8 -3 -18 -12 -23 -19 -4 -7 -24 -16 -44 -20 l-36 -7 27
-14 c30 -16 56 -4 56 24 0 10 6 12 20 8 16 -5 20 -2 20 14 0 12 -1 21 -2 20
-2 0 -10 -3 -18 -6z"/>
<path d="M2275 4223 c-18 -14 -18 -15 -2 -9 10 3 28 6 40 6 18 0 19 2 7 10
-19 13 -21 12 -45 -7z"/>
<path d="M2630 4225 c-7 -9 -11 -18 -8 -20 3 -3 11 1 18 10 7 9 11 18 8 20 -3
3 -11 -1 -18 -10z"/>
<path d="M2676 4225 c-29 -22 -16 -23 24 -3 25 13 29 18 15 18 -11 0 -29 -7
-39 -15z"/>
<path d="M2351 4211 c-10 -7 -7 -9 12 -8 15 1 27 5 27 10 0 10 -22 9 -39 -2z"/>
<path d="M2740 4210 c-12 -8 -9 -9 12 -8 15 1 24 6 22 10 -7 10 -16 10 -34 -2z"/>
<path d="M2960 4200 c0 -5 5 -10 11 -10 5 0 7 5 4 10 -3 6 -8 10 -11 10 -2 0
-4 -4 -4 -10z"/>
<path d="M2260 4190 c-13 -8 -12 -10 3 -10 9 0 17 5 17 10 0 12 -1 12 -20 0z"/>
<path d="M2663 4174 c-14 -14 -23 -28 -20 -31 4 -3 20 9 37 26 17 17 26 31 20
31 -6 0 -22 -12 -37 -26z"/>
<path d="M2755 4180 c-3 -5 -2 -10 4 -10 5 0 13 5 16 10 3 6 2 10 -4 10 -5 0
-13 -4 -16 -10z"/>
<path d="M2284 4169 c-4 -6 -19 -9 -36 -5 -26 5 -29 4 -18 -9 17 -20 33 -19
55 5 10 11 15 20 12 20 -3 0 -9 -5 -13 -11z"/>
<path d="M2709 4163 c-9 -10 -19 -26 -22 -36 -5 -14 -2 -16 16 -13 37 7 55 17
61 32 4 11 -3 9 -24 -6 -29 -21 -42 -16 -19 7 6 6 10 16 7 23 -2 7 -9 5 -19
-7z"/>
<path d="M2606 4154 c-9 -23 -2 -28 13 -10 7 8 8 17 3 20 -6 3 -13 -1 -16 -10z"/>
<path d="M2980 4163 c0 -5 10 -18 23 -29 l22 -19 -20 25 c-11 14 -21 27 -22
29 -2 2 -3 0 -3 -6z"/>
<path d="M3030 4126 c5 -15 1 -32 -13 -56 l-21 -34 37 28 c20 16 37 25 37 21
0 -4 7 -2 15 5 27 23 10 52 -33 55 -27 1 -29 -1 -22 -19z m49 -20 c0 -14 -2
-16 -6 -6 -3 8 -10 21 -16 28 -7 9 -6 11 7 6 9 -3 16 -16 15 -28z"/>
<path d="M2015 4130 c-4 -6 3 -25 15 -43 19 -28 20 -29 14 -7 -4 14 -10 26
-15 28 -4 2 -5 10 -2 18 6 16 -3 19 -12 4z"/>
<path d="M2050 4124 c0 -8 5 -12 10 -9 6 3 10 10 10 16 0 5 -4 9 -10 9 -5 0
-10 -7 -10 -16z"/>
<path d="M2286 4125 c-14 -11 -16 -15 -5 -15 8 0 23 7 33 15 14 11 16 15 5 15
-8 0 -23 -7 -33 -15z"/>
<path d="M3640 4113 c0 -8 5 -13 12 -11 18 6 21 25 3 25 -8 0 -15 -7 -15 -14z"/>
<path d="M2583 4108 c-6 -7 -13 -22 -16 -33 -6 -17 -4 -17 13 4 11 13 20 27
20 32 0 12 -6 11 -17 -3z"/>
<path d="M2295 4083 c-11 -11 -14 -18 -6 -21 6 -2 8 -9 4 -15 -3 -7 -2 -8 3
-4 5 5 9 12 9 15 0 4 4 13 9 20 13 21 0 25 -19 5z"/>
<path d="M2710 4084 c-16 -18 -21 -56 -8 -48 11 7 30 55 25 61 -2 2 -10 -4
-17 -13z"/>
<path d="M2746 4081 c-10 -11 -16 -25 -14 -31 2 -6 11 3 21 20 21 34 18 39 -7
11z"/>
<path d="M3135 4089 c-11 -17 1 -21 15 -4 8 9 8 15 2 15 -6 0 -14 -5 -17 -11z"/>
<path d="M2009 4072 c19 -36 13 -75 -17 -104 -15 -15 -46 -45 -70 -68 -24 -23
-41 -45 -38 -47 3 -3 12 0 21 7 18 15 20 13 30 -18 6 -20 4 -22 -19 -16 -22 5
-24 3 -19 -16 3 -12 13 -24 22 -27 9 -3 24 -13 34 -21 15 -14 17 -13 17 3 0
10 -8 27 -17 38 -18 19 -17 19 19 1 31 -14 42 -15 64 -5 20 9 30 9 40 0 8 -6
21 -9 29 -5 8 3 15 0 15 -6 0 -9 3 -9 12 0 9 9 7 19 -10 42 -13 16 -18 30 -12
30 17 0 11 64 -7 82 -31 29 -44 48 -64 93 -11 24 -24 47 -30 51 -8 4 -8 0 0
-14z m65 -124 c28 -39 19 -52 -16 -23 -18 15 -39 24 -50 22 -10 -3 -18 -1 -18
3 0 5 12 11 28 13 15 2 30 5 34 6 4 0 14 -9 22 -21z m-17 -50 c17 -14 17 -53
0 -67 -29 -23 -74 -24 -97 -1 -30 30 -25 82 10 90 26 7 65 -3 87 -22z m-127
-98 c0 -5 -2 -10 -4 -10 -3 0 -8 5 -11 10 -3 6 -1 10 4 10 6 0 11 -4 11 -10z"/>
<path d="M2655 4072 c-11 -10 -21 -30 -22 -46 -1 -27 0 -27 24 13 28 48 27 57
-2 33z"/>
<path d="M3578 4078 c9 -9 15 -9 24 0 9 9 7 12 -12 12 -19 0 -21 -3 -12 -12z"/>
<path d="M2420 4055 c0 -8 5 -15 10 -15 6 0 10 7 10 15 0 8 -4 15 -10 15 -5 0
-10 -7 -10 -15z"/>
<path d="M2511 4044 c0 -11 3 -14 6 -6 3 7 2 16 -1 19 -3 4 -6 -2 -5 -13z"/>
<path d="M1879 4037 c16 -19 41 -23 41 -5 0 6 -3 8 -6 5 -4 -3 -16 -1 -28 5
-19 10 -20 10 -7 -5z"/>
<path d="M1959 4034 c-12 -14 -11 -16 5 -13 11 2 21 10 24 17 5 17 -13 15 -29
-4z"/>
<path d="M2580 4044 c0 -5 -7 -19 -16 -30 -15 -19 -15 -18 -11 4 6 27 -8 21
-16 -7 -4 -16 0 -18 22 -15 36 7 45 19 32 41 -6 10 -11 13 -11 7z"/>
<path d="M2052 4028 c2 -6 10 -14 16 -16 7 -2 10 2 6 12 -7 18 -28 22 -22 4z"/>
<path d="M2304 4023 c3 -4 -1 -15 -11 -25 -18 -20 -4 -25 28 -8 25 14 24 26
-2 33 -12 3 -18 3 -15 0z"/>
<path d="M1990 4005 c-10 -12 -10 -15 4 -15 9 0 16 7 16 15 0 8 -2 15 -4 15
-2 0 -9 -7 -16 -15z"/>
<path d="M2470 4014 c0 -7 -13 -10 -31 -8 -19 2 -28 0 -23 -7 3 -6 15 -9 25
-6 10 3 24 -2 30 -9 7 -8 18 -13 26 -10 7 3 13 0 13 -6 0 -6 2 -9 5 -6 3 3 1
16 -4 29 -5 13 -10 18 -10 10 -1 -11 -5 -10 -16 5 -8 10 -15 14 -15 8z"/>
<path d="M2689 4000 c-31 -25 -12 -26 21 0 14 11 20 20 14 20 -7 0 -22 -9 -35
-20z"/>
<path d="M1916 4003 c-14 -4 -16 -7 -6 -13 11 -7 11 -12 2 -23 -10 -12 -8 -13
13 -9 14 2 25 7 26 11 0 3 2 14 4 24 3 17 -4 19 -39 10z"/>
<path d="M2735 3999 c-12 -19 5 -23 22 -6 16 16 16 17 1 17 -9 0 -20 -5 -23
-11z"/>
<path d="M2942 3971 c-23 -22 -42 -44 -42 -49 0 -5 -7 -13 -16 -16 -12 -5 -15
-14 -10 -39 4 -17 7 -40 7 -49 0 -10 4 -18 9 -18 5 0 11 8 13 18 3 9 11 40 17
67 13 51 37 88 50 80 4 -2 16 5 26 16 17 19 17 20 -1 13 -13 -5 -16 -4 -11 4
12 20 2 13 -42 -27z"/>
<path d="M2590 3974 c-6 -14 -10 -31 -10 -38 0 -6 -5 -17 -12 -24 -9 -9 -8
-12 6 -12 14 0 16 -3 7 -13 -8 -10 -7 -17 1 -25 10 -10 10 -17 0 -32 -10 -16
-9 -18 2 -14 8 3 18 17 22 32 6 21 8 23 11 9 5 -18 5 -18 19 0 18 24 18 39 -1
23 -8 -7 -15 -9 -15 -5 0 4 -8 1 -17 -6 -9 -8 -14 -9 -10 -2 8 12 17 133 10
133 -2 0 -8 -12 -13 -26z"/>
<path d="M1845 3981 c-3 -5 -2 -12 3 -15 5 -3 9 1 9 9 0 17 -3 19 -12 6z"/>
<path d="M2293 3961 c-37 -18 -44 -36 -10 -26 24 8 54 32 46 38 -2 3 -19 -3
-36 -12z"/>
<path d="M2631 3954 c-7 -16 -8 -31 -3 -36 6 -6 12 4 16 23 8 41 3 46 -13 13z"/>
<path d="M2405 3944 c31 -29 43 -26 23 5 -7 12 -21 21 -32 21 -16 0 -15 -3 9
-26z"/>
<path d="M2669 3954 c-21 -25 -3 -35 19 -11 17 18 19 24 7 24 -8 0 -20 -6 -26
-13z"/>
<path d="M2528 3954 c-5 -4 -8 -19 -8 -33 1 -23 2 -24 11 -8 11 19 9 53 -3 41z"/>
<path d="M2729 3943 c-11 -13 -11 -15 -1 -9 8 5 21 1 33 -10 11 -10 19 -12 19
-5 0 6 -7 14 -16 18 -13 5 -13 7 -2 14 10 7 9 9 -3 9 -9 0 -23 -8 -30 -17z"/>
<path d="M1905 3930 c-10 -11 -15 -23 -12 -27 7 -6 36 25 37 40 0 11 -6 8 -25
-13z"/>
<path d="M2215 3940 c-3 -5 -1 -10 4 -10 6 0 11 5 11 10 0 6 -2 10 -4 10 -3 0
-8 -4 -11 -10z"/>
<path d="M2355 3940 c-3 -5 3 -10 15 -10 12 0 18 5 15 10 -3 6 -10 10 -15 10
-5 0 -12 -4 -15 -10z"/>
<path d="M2551 3934 c0 -11 3 -14 6 -6 3 7 2 16 -1 19 -3 4 -6 -2 -5 -13z"/>
<path d="M2470 3926 c0 -18 17 -29 30 -21 8 5 7 11 -1 21 -15 18 -29 18 -29 0z"/>
<path d="M2952 3915 c-12 -15 -22 -37 -22 -49 -1 -11 -7 -32 -15 -46 -16 -29
-20 -110 -5 -110 6 0 11 17 11 38 1 20 4 28 6 17 5 -29 39 -48 61 -36 16 10
16 10 0 11 -30 0 -78 80 -48 80 6 0 10 -8 10 -19 0 -10 7 -24 15 -31 19 -16
20 1 4 33 -12 21 -11 22 8 4 11 -10 37 -20 57 -24 31 -5 40 -1 68 28 17 19 28
27 23 19 -7 -13 -6 -13 7 -2 22 17 10 60 -23 84 -14 11 -50 22 -80 25 -52 5
-57 4 -77 -22z m148 -15 c22 -22 18 -42 -13 -77 -27 -30 -68 -29 -106 3 -33
27 -37 44 -21 75 15 28 112 27 140 -1z"/>
<path d="M2970 3890 c-9 -16 -8 -20 5 -20 8 0 15 9 15 20 0 11 -2 20 -5 20 -2
0 -9 -9 -15 -20z"/>
<path d="M2280 3915 c-7 -8 -9 -15 -5 -15 4 0 2 -7 -5 -15 -20 -24 -5 -28 21
-6 14 12 18 20 11 21 -7 0 -10 5 -6 11 3 6 15 9 25 6 11 -3 19 -1 19 4 0 15
-47 10 -60 -6z"/>
<path d="M2705 3909 c-10 -15 3 -25 16 -12 7 7 7 13 1 17 -6 3 -14 1 -17 -5z"/>
<path d="M2225 3901 c-3 -5 -2 -12 3 -15 5 -3 9 1 9 9 0 17 -3 19 -12 6z"/>
<path d="M2410 3900 c0 -5 5 -10 11 -10 5 0 7 5 4 10 -3 6 -8 10 -11 10 -2 0
-4 -4 -4 -10z"/>
<path d="M2464 3890 c3 -8 9 -23 12 -32 4 -10 10 -18 15 -18 17 0 9 27 -12 46
-15 13 -20 14 -15 4z"/>
<path d="M2325 3880 c-3 -5 1 -10 9 -10 9 0 16 5 16 10 0 6 -4 10 -9 10 -6 0
-13 -4 -16 -10z"/>
<path d="M2511 3854 c-1 -26 5 -46 14 -54 12 -10 15 -9 14 6 0 11 -7 35 -14
54 l-13 35 -1 -41z"/>
<path d="M2380 3871 c0 -5 8 -11 18 -15 9 -3 24 -9 32 -12 8 -3 4 4 -9 15 -25
22 -41 27 -41 12z"/>
<path d="M2720 3865 c-14 -16 -10 -18 14 -9 9 3 16 10 16 15 0 14 -16 11 -30
-6z"/>
<path d="M2259 3840 c-23 -19 -23 -19 -3 -20 11 0 29 9 39 20 15 17 16 20 3
20 -9 0 -26 -9 -39 -20z"/>
<path d="M2298 3825 c-12 -14 -28 -25 -35 -25 -8 0 -11 -5 -8 -10 9 -14 62 19
68 42 7 24 1 23 -25 -7z"/>
<path d="M2555 3840 c-3 -5 -1 -10 4 -10 6 0 11 5 11 10 0 6 -2 10 -4 10 -3 0
-8 -4 -11 -10z"/>
<path d="M2357 3828 c-15 -12 -14 -13 13 -14 17 -1 29 3 27 9 -5 17 -21 18
-40 5z"/>
<path d="M2625 3820 c-10 -11 -14 -20 -9 -20 5 0 15 9 22 20 7 11 11 20 9 20
-2 0 -12 -9 -22 -20z"/>
<path d="M2426 3817 c3 -10 9 -15 12 -12 3 3 0 11 -7 18 -10 9 -11 8 -5 -6z"/>
<path d="M3146 3814 c-4 -10 -1 -14 6 -12 15 5 23 28 10 28 -5 0 -13 -7 -16
-16z"/>
<path d="M2450 3816 c0 -2 7 -9 15 -16 9 -7 15 -8 15 -2 0 5 -7 12 -15 16 -8
3 -15 4 -15 2z"/>
<path d="M2673 3813 c-24 -9 -13 -20 17 -15 16 2 27 8 24 13 -6 10 -21 11 -41
2z"/>
<path d="M2774 3805 c-17 -13 -17 -14 -1 -15 9 0 17 -4 17 -10 0 -5 5 -10 10
-10 6 0 10 11 10 25 0 29 -8 31 -36 10z"/>
<path d="M2493 3777 c-1 -30 -1 -31 9 -9 7 14 8 26 2 32 -5 5 -10 -4 -11 -23z"/>
<path d="M2045 3790 c-3 -5 -2 -10 4 -10 5 0 13 5 16 10 3 6 2 10 -4 10 -5 0
-13 -4 -16 -10z"/>
<path d="M2208 3793 c7 -3 16 -2 19 1 4 3 -2 6 -13 5 -11 0 -14 -3 -6 -6z"/>
<path d="M2281 3776 c-14 -8 -32 -12 -40 -9 -10 3 -9 0 3 -7 13 -9 24 -9 43
-1 33 15 42 13 19 -4 -18 -14 -18 -15 -2 -15 9 0 26 5 37 10 10 6 19 7 19 2 0
-5 -10 -14 -22 -20 -14 -6 -17 -11 -8 -11 8 0 22 3 29 8 9 6 23 6 35 0 13 -6
9 0 -9 15 -16 14 -36 26 -42 26 -7 0 -13 5 -13 10 0 14 -20 12 -49 -4z"/>
<path d="M2424 3771 c21 -23 26 -26 26 -11 0 5 -10 15 -22 21 -23 12 -23 12
-4 -10z"/>
<path d="M2547 3773 c-4 -3 -7 -11 -7 -17 0 -6 5 -5 12 2 6 6 9 14 7 17 -3 3
-9 2 -12 -2z"/>
<path d="M2579 3753 c-13 -16 -12 -17 4 -4 16 13 21 21 13 21 -2 0 -10 -8 -17
-17z"/>
<path d="M2688 3748 c9 -9 15 -9 24 0 9 9 7 12 -12 12 -19 0 -21 -3 -12 -12z"/>
<path d="M2770 3756 c0 -2 7 -9 15 -16 12 -10 15 -10 15 4 0 9 -7 16 -15 16
-8 0 -15 -2 -15 -4z"/>
<path d="M3010 3751 c0 -5 5 -13 10 -16 6 -3 10 -2 10 4 0 5 -4 13 -10 16 -5
3 -10 2 -10 -4z"/>
<path d="M2437 3725 c20 -27 33 -32 33 -12 0 8 -11 19 -25 25 l-26 12 18 -25z"/>
<path d="M2515 3740 c3 -5 8 -10 11 -10 2 0 4 5 4 10 0 6 -5 10 -11 10 -5 0
-7 -4 -4 -10z"/>
<path d="M2589 3731 c-13 -11 -21 -22 -18 -25 3 -3 16 5 29 19 28 30 22 33
-11 6z"/>
<path d="M2230 3723 c0 -2 7 -12 16 -20 14 -15 13 -18 -13 -39 -38 -31 -18
-30 23 1 18 14 44 25 59 25 16 0 24 4 20 11 -4 6 -19 7 -36 4 -23 -5 -28 -4
-23 8 4 10 -2 15 -20 15 -14 0 -26 -3 -26 -5z"/>
<path d="M2710 3720 c8 -5 22 -9 30 -9 10 0 8 3 -5 9 -27 12 -43 12 -25 0z"/>
<path d="M2506 3707 c3 -10 9 -15 12 -12 3 3 0 11 -7 18 -10 9 -11 8 -5 -6z"/>
<path d="M2535 3700 c-4 -12 -5 -24 -2 -27 3 -2 8 5 12 17 4 12 5 24 2 27 -3
2 -8 -5 -12 -17z"/>
<path d="M2395 3700 c9 -15 45 -32 45 -22 0 5 -12 14 -26 20 -14 7 -23 8 -19
2z"/>
<path d="M2670 3690 c19 -13 30 -13 30 0 0 6 -10 10 -22 10 -19 0 -20 -2 -8
-10z"/>
<path d="M2787 3687 c-3 -7 1 -21 9 -32 8 -10 14 -15 15 -9 0 5 2 19 3 32 3
23 -18 31 -27 9z"/>
<path d="M2893 3639 c-1 -45 2 -58 10 -51 7 6 21 6 35 1 28 -11 29 -23 1 -16
-13 3 -19 1 -16 -6 2 -7 12 -12 22 -12 10 0 20 -5 22 -12 4 -12 -33 -7 -52 8
-7 5 -11 -1 -10 -17 0 -15 8 -30 20 -36 11 -6 29 -18 40 -28 19 -16 21 -16 37
1 10 11 13 21 8 24 -6 4 -10 1 -10 -5 0 -6 -4 -8 -10 -5 -5 3 -10 13 -10 21 0
11 6 13 20 9 15 -5 23 0 31 19 13 28 6 58 -12 54 -7 -2 -15 8 -19 22 -4 14
-12 24 -18 23 -7 -2 -12 3 -12 10 0 18 -36 50 -58 54 -14 2 -17 -8 -19 -58z
m77 -24 c10 -3 20 -15 23 -26 3 -11 6 -23 7 -27 1 -4 6 -15 11 -24 14 -25 6
-22 -22 9 -13 14 -18 23 -11 19 14 -8 15 -5 6 18 -3 9 -11 16 -16 16 -18 0
-47 44 -47 70 1 22 3 20 16 -12 9 -21 23 -40 33 -43z"/>
<path d="M2980 3688 c0 -19 48 -88 62 -88 6 0 3 10 -6 23 -9 12 -20 32 -25 44
-12 26 -31 39 -31 21z"/>
<path d="M2067 3673 c-2 -5 -7 -25 -11 -45 -6 -31 -4 -38 9 -38 11 0 15 11 15
45 0 43 -4 54 -13 38z"/>
<path d="M2343 3673 c-7 -2 -13 -14 -13 -26 1 -21 1 -21 15 -3 8 11 20 16 30
12 11 -4 14 -2 9 6 -5 8 -2 9 10 5 10 -4 15 -3 11 3 -6 10 -41 12 -62 3z"/>
<path d="M2655 3670 c-10 -16 13 -39 36 -37 22 2 26 22 5 30 -10 4 -13 1 -9
-9 4 -10 0 -12 -10 -8 -9 3 -13 12 -10 20 6 16 -3 19 -12 4z"/>
<path d="M2236 3634 c-23 -20 -31 -23 -38 -12 -8 10 -9 10 -5 -2 2 -8 12 -14
22 -12 10 2 14 -1 10 -7 -3 -6 1 -11 9 -11 17 0 59 54 49 64 -10 10 -16 7 -47
-20z"/>
<path d="M2783 3628 c14 -22 32 -29 50 -20 4 2 3 10 -4 18 -6 7 -15 12 -19 9
-5 -3 -11 -1 -15 5 -3 5 -11 10 -17 10 -6 0 -4 -9 5 -22z"/>
<path d="M2288 3590 c-9 -17 -13 -30 -8 -30 5 0 16 14 25 30 20 39 5 39 -17 0z"/>
<path d="M2690 3613 c1 -11 26 -43 34 -43 14 0 5 26 -14 38 -11 7 -20 9 -20 5z"/>
<path d="M2772 3590 c13 -20 28 -27 28 -12 0 10 -22 32 -32 32 -5 0 -3 -9 4
-20z"/>
<path d="M2253 3588 c-6 -7 -15 -26 -22 -43 -11 -29 -11 -29 -6 -2 3 15 3 27
0 27 -9 0 -57 -82 -51 -88 3 -3 6 0 6 6 0 7 10 12 23 11 12 0 16 -3 10 -6 -7
-2 -13 -9 -13 -15 0 -22 29 14 50 63 21 50 23 72 3 47z"/>
<path d="M2781 3541 c17 -23 26 -28 36 -20 7 6 10 16 7 21 -4 6 -10 5 -15 -3
-6 -10 -9 -10 -9 -2 0 7 -9 17 -21 23 -20 11 -20 11 2 -19z"/>
<path d="M2264 3533 c-2 -7 -7 -21 -11 -30 -19 -52 0 -52 32 0 28 46 28 46 4
44 -12 -1 -23 -7 -25 -14z"/>
<path d="M2735 3540 c3 -5 11 -10 16 -10 6 0 7 5 4 10 -3 6 -11 10 -16 10 -6
0 -7 -4 -4 -10z"/>
<path d="M2160 3520 c-8 -5 -12 -12 -9 -15 4 -3 12 1 19 10 14 17 11 19 -10 5z"/>
<path d="M2719 3503 c4 -15 12 -28 19 -31 7 -2 6 8 -4 27 -19 38 -25 40 -15 4z"/>
<path d="M2762 3480 c13 -20 28 -27 28 -12 0 10 -22 32 -32 32 -5 0 -3 -9 4
-20z"/>
<path d="M2890 3496 c0 -3 7 -12 16 -21 10 -9 18 -28 20 -42 3 -27 24 -57 24
-34 0 7 4 10 9 7 4 -3 5 9 2 26 -4 21 -17 37 -39 50 -17 9 -32 16 -32 14z"/>
<path d="M2122 3458 c-9 -12 -52 -129 -52 -143 0 -11 28 -4 40 10 9 10 9 15 1
15 -6 0 -11 12 -11 27 0 21 3 24 12 15 6 -6 11 -25 11 -41 0 -17 4 -28 9 -25
4 3 9 -1 9 -8 1 -7 3 -20 4 -28 1 -8 3 -23 4 -32 0 -10 4 -18 9 -18 13 0 40
57 32 70 -6 9 -9 9 -13 -1 -4 -10 -6 -9 -6 4 -1 9 3 17 8 17 14 0 23 32 11 44
-7 7 -10 5 -10 -7 0 -9 -4 -17 -9 -17 -12 0 -23 29 -15 41 3 5 0 9 -7 9 -7 0
-9 10 -7 25 3 14 1 22 -5 18 -5 -3 -6 3 -2 16 7 24 2 27 -13 9z"/>
<path d="M2242 3421 c-7 -18 -7 -31 -2 -31 11 0 25 48 17 56 -2 3 -9 -9 -15
-25z"/>
<path d="M2755 3440 c3 -5 8 -10 11 -10 2 0 4 5 4 10 0 6 -5 10 -11 10 -5 0
-7 -4 -4 -10z"/>
<path d="M2706 3415 c4 -8 11 -15 16 -15 6 0 5 6 -2 15 -7 8 -14 15 -16 15 -2
0 -1 -7 2 -15z"/>
<path d="M2740 3410 c0 -5 5 -10 10 -10 6 0 10 5 10 10 0 6 -4 10 -10 10 -5 0
-10 -4 -10 -10z"/>
<path d="M2311 3383 l-24 -20 62 -47 c60 -47 83 -73 37 -43 -23 16 -23 15 -12
-8 6 -14 23 -27 39 -31 15 -3 27 -10 27 -15 0 -5 5 -9 10 -9 6 0 10 7 10 15 0
8 -4 15 -10 15 -5 0 -10 5 -10 10 0 6 13 4 31 -5 28 -15 33 -15 57 1 26 17 27
17 11 -2 -29 -35 -33 -49 -6 -25 14 13 32 21 40 18 17 -6 57 19 57 35 0 6 -10
3 -22 -8 -22 -19 -22 -19 1 14 12 18 28 32 34 31 19 -4 67 23 67 36 0 12 -41
55 -52 55 -3 0 -4 -10 0 -22 3 -13 1 -19 -5 -15 -6 4 -16 1 -22 -7 -9 -11 -9
-15 1 -20 7 -3 -8 -4 -34 -2 -56 4 -84 -11 -75 -43 6 -24 -21 -45 -47 -35 -26
10 -18 25 9 18 18 -4 25 -2 25 9 0 8 -7 18 -16 21 -10 4 -13 2 -8 -6 4 -7 3
-8 -4 -4 -7 4 -12 13 -12 20 0 8 -11 16 -25 18 -14 3 -25 1 -25 -3 0 -12 -57
-11 -65 1 -4 6 1 7 11 3 14 -5 15 -3 4 17 -9 17 -14 19 -20 10 -6 -9 -9 -5
-12 14 l-3 28 -24 -19z m259 -57 c0 -2 -8 -10 -17 -17 -16 -13 -17 -12 -4 4
13 16 21 21 21 13z"/>
<path d="M2260 3381 c0 -6 5 -13 10 -16 6 -3 10 1 10 9 0 9 -4 16 -10 16 -5 0
-10 -4 -10 -9z"/>
<path d="M2241 3354 c0 -11 3 -14 6 -6 3 7 2 16 -1 19 -3 4 -6 -2 -5 -13z"/>
<path d="M2890 3293 c0 -7 -7 -13 -16 -13 -8 0 -12 -4 -9 -10 3 -5 1 -19 -5
-31 -6 -11 -8 -28 -4 -37 4 -9 8 -20 8 -24 2 -14 16 -21 16 -7 1 8 7 1 14 -16
12 -26 15 -28 21 -12 4 11 3 23 -4 30 -16 16 -14 32 3 18 17 -15 24 0 18 38
-4 28 -41 85 -42 64z m15 -55 c-11 -34 -24 -45 -35 -28 -6 10 -3 20 8 32 24
24 35 22 27 -4z"/>
<path d="M2817 3203 c-10 -9 -9 -23 1 -23 5 0 9 7 9 15 0 17 -1 18 -10 8z"/>
<path d="M2787 3160 c-3 -11 -1 -23 4 -26 5 -3 9 6 9 20 0 31 -6 34 -13 6z"/>
<path d="M2811 3138 c-1 -29 12 -43 31 -32 8 5 7 10 -4 18 -8 6 -17 18 -21 26
-3 9 -6 4 -6 -12z"/>
<path d="M2270 3036 c0 -8 5 -18 10 -21 6 -3 10 1 10 9 0 8 -4 18 -10 21 -5 3
-10 -1 -10 -9z"/>
<path d="M2655 3010 c3 -5 8 -10 11 -10 2 0 4 5 4 10 0 6 -5 10 -11 10 -5 0
-7 -4 -4 -10z"/>
<path d="M2633 2992 c-8 -5 -9 -13 -3 -22 7 -12 10 -12 16 3 8 21 3 29 -13 19z"/>
<path d="M2350 2911 c0 -6 4 -13 10 -16 6 -3 7 1 4 9 -7 18 -14 21 -14 7z"/>
<path d="M2581 2882 c-14 -27 -14 -43 0 -18 9 15 13 16 20 5 5 -8 9 -9 9 -4 0
6 -4 16 -9 24 -7 11 -11 10 -20 -7z"/>
<path d="M2347 2872 c6 -15 5 -15 -10 -3 -23 18 -22 -1 1 -22 24 -21 54 -25
59 -7 4 12 2 12 -5 2 -7 -10 -11 -10 -21 2 -7 8 -10 19 -7 25 3 5 -1 11 -9 14
-10 4 -12 1 -8 -11z"/>
</g>
</svg>
